<?xml version="1.0" encoding="UTF-8"?>
<svg version="1.1" xmlns="http://www.w3.org/2000/svg" width="193" height="64">
<path d="M0 0 C0.31563182 5.26053037 -0.33409063 8.44573816 -3 13 C-2.34 12.67 -1.68 12.34 -1 12 C0.99960012 11.960008 3.00047242 11.95653201 5 12 C5.495 13.485 5.495 13.485 6 15 C6.66 14.67 7.32 14.34 8 14 C7.505 13.01 7.505 13.01 7 12 C9.79173055 11.97309896 12.58320348 11.95320947 15.375 11.9375 C16.1690625 11.92912109 16.963125 11.92074219 17.78125 11.91210938 C23.7734375 11.88671875 23.7734375 11.88671875 26 13 C25.625 14.9375 25.625 14.9375 25 17 C24.34 17.33 23.68 17.66 23 18 C22.53045739 21.04581269 22.53045739 21.04581269 22.375 24.5625 C22.189375 27.7490625 22.189375 27.7490625 22 31 C26.29 31 30.58 31 35 31 C35 26.71 35 22.42 35 18 C33.68 17.67 32.36 17.34 31 17 C30.67 16.01 30.34 15.02 30 14 C31.65 14.33 33.3 14.66 35 15 C35.33 14.01 35.66 13.02 36 12 C38.29160319 11.97307516 40.58329546 11.95363876 42.875 11.9375 C44.15117187 11.92589844 45.42734375 11.91429687 46.7421875 11.90234375 C50 12 50 12 52 13 C51.625 14.9375 51.625 14.9375 51 17 C50.34 17.33 49.68 17.66 49 18 C49 29.88 49 41.76 49 54 C49.99 54.33 50.98 54.66 52 55 C52 56.32 52 57.64 52 59 C46.39 59 40.78 59 35 59 C35 58.01 35 57.02 35 56 C34.01 56.33 33.02 56.66 32 57 C32 55.68 32 54.36 32 53 C32.99 53 33.98 53 35 53 C35 48.05 35 43.1 35 38 C30.71 38 26.42 38 22 38 C22.495 45.92 22.495 45.92 23 54 C23.99 54.33 24.98 54.66 26 55 C26 56.32 26 57.64 26 59 C13.54879972 59.83694728 1.44031111 60.04743552 -11 59 C-11.33 58.34 -11.66 57.68 -12 57 C-12.99 57.495 -12.99 57.495 -14 58 C-13.67 56.35 -13.34 54.7 -13 53 C-12.01 53 -11.02 53 -10 53 C-10.33 41.78 -10.66 30.56 -11 19 C-12.98 19.33 -14.96 19.66 -17 20 C-18.43637698 21.95163118 -18.43637698 21.95163118 -19 24 C-23.53947368 24.37828947 -23.53947368 24.37828947 -25.75 22.5625 C-29.92812895 19.66102156 -35.14551205 19.73507315 -40.0625 20.4375 C-40.701875 20.623125 -41.34125 20.80875 -42 21 C-41.54625 21.825 -41.0925 22.65 -40.625 23.5 C-37.84589624 29.48576195 -36.30114196 35.36084859 -37 42 C-38.1520299 45.12550721 -39.52449021 48.00287074 -41 51 C-37.37 51 -33.74 51 -30 51 C-29.89167831 48.91781638 -29.81426459 46.83400871 -29.75 44.75 C-29.70359375 43.58984375 -29.6571875 42.4296875 -29.609375 41.234375 C-30.07209511 37.40305252 -31.09120297 36.40491093 -34 34 C-34 33.67 -34 33.34 -34 33 C-27.07 33 -20.14 33 -13 33 C-13.33 34.32 -13.66 35.64 -14 37 C-14.99 37.495 -14.99 37.495 -16 38 C-16.33 45.26 -16.66 52.52 -17 60 C-19.31 59.67 -21.62 59.34 -24 59 C-25.485 59.495 -25.485 59.495 -27 60 C-39.23632359 60.8924107 -49.456213 59.05382869 -59 51 C-61.0625 48.125 -61.0625 48.125 -62 46 C-64.00962303 48.93482581 -64.00962303 48.93482581 -65.625 51.875 C-68.98526605 56.2964027 -72.68782971 59.33525378 -78.23828125 60.44921875 C-83.8855347 60.7320691 -88.41846083 59.28906286 -93 56 C-97.9535194 51.46385031 -100.70464762 46.87133922 -101.22705078 40.02392578 C-101.21657715 39.0079834 -101.20610352 37.99204102 -101.1953125 36.9453125 C-101.18886719 35.83671875 -101.18242188 34.728125 -101.17578125 33.5859375 C-101.15902344 32.44382813 -101.14226562 31.30171875 -101.125 30.125 C-101.11597656 28.9596875 -101.10695312 27.794375 -101.09765625 26.59375 C-101.07417432 23.72895423 -101.04133141 20.86458465 -101 18 C-101.99 18 -102.98 18 -104 18 C-103.125 13.125 -103.125 13.125 -102 12 C-100.65732587 11.91368126 -99.31025678 11.89293527 -97.96484375 11.90234375 C-97.15595703 11.90556641 -96.34707031 11.90878906 -95.51367188 11.91210938 C-94.66353516 11.92048828 -93.81339844 11.92886719 -92.9375 11.9375 C-92.08349609 11.94201172 -91.22949219 11.94652344 -90.34960938 11.95117188 C-88.23304337 11.96299627 -86.11651315 11.98093231 -84 12 C-85.375 14.5 -85.375 14.5 -87 17 C-87.66 17 -88.32 17 -89 17 C-88.90639526 21.21792077 -88.80028691 25.43528583 -88.68261719 29.65258789 C-88.64435134 31.08707068 -88.60949419 32.52164865 -88.578125 33.95629883 C-88.53242138 36.01938878 -88.47443807 38.08182495 -88.4140625 40.14453125 C-88.3826416 41.38565674 -88.3512207 42.62678223 -88.31884766 43.90551758 C-88.22600791 47.16636101 -88.22600791 47.16636101 -86 50 C-80.71844821 50.5194969 -77.26300246 50.48791111 -73 47 C-71.9407082 43.82212459 -71.88541061 41.57411057 -71.90234375 38.23828125 C-71.90556641 37.12001953 -71.90878906 36.00175781 -71.91210938 34.84960938 C-71.92048828 33.68236328 -71.92886719 32.51511719 -71.9375 31.3125 C-71.94201172 30.13365234 -71.94652344 28.95480469 -71.95117188 27.74023438 C-71.96296727 24.82677211 -71.9794273 21.91341137 -72 19 C-72.99 18.67 -73.98 18.34 -75 18 C-74.814375 17.38125 -74.62875 16.7625 -74.4375 16.125 C-73.76313824 13.95839822 -73.76313824 13.95839822 -75 12 C-73.57107422 12.13921875 -73.57107422 12.13921875 -72.11328125 12.28125 C-68.27109139 12.50238323 -64.80762496 12.58845113 -61 12 C-58.86030261 10.03285885 -57.98539626 8.42377977 -56.89453125 5.75 C-56.59933594 5.1725 -56.30414063 4.595 -56 4 C-55.01 4 -54.02 4 -53 4 C-52.731875 5.093125 -52.46375 6.18625 -52.1875 7.3125 C-51.01576549 11.41698591 -51.01576549 11.41698591 -48 14 C-45.32520673 13.73904456 -43.39904859 13.1995243 -41 12 C-38.70936245 11.92823817 -36.41666107 11.91606034 -34.125 11.9375 C-32.89007813 11.94652344 -31.65515625 11.95554687 -30.3828125 11.96484375 C-29.26648438 11.97644531 -28.15015625 11.98804688 -27 12 C-23.26921798 12.16602736 -23.26921798 12.16602736 -20.8125 11.4375 C-20.214375 11.293125 -19.61625 11.14875 -19 11 C-18 12 -18 12 -17.9375 14.5625 C-17.958125 15.366875 -17.97875 16.17125 -18 17 C-17.34 16.34 -16.68 15.68 -16 15 C-16.04125 14.236875 -16.0825 13.47375 -16.125 12.6875 C-15.94638243 8.84722233 -14.74609882 7.6791208 -12 5 C-4.4109589 0 -4.4109589 0 0 0 Z M-6 14 C-5.67 14.66 -5.34 15.32 -5 16 C-4.67 15.34 -4.34 14.68 -4 14 C-4.66 14 -5.32 14 -6 14 Z M-63 17 C-62 19 -62 19 -62 19 Z M5 16 C4.01 16.495 4.01 16.495 3 17 C3 29.54 3 42.08 3 55 C3.99 55 4.98 55 6 55 C6 54.34 6 53.68 6 53 C6.99 53 7.98 53 9 53 C9 41.45 9 29.9 9 18 C8.01 18 7.02 18 6 18 C5.67 17.34 5.34 16.68 5 16 Z M-63 20 C-62 23 -62 23 -62 23 Z M6 56 C6 56.99 6 57.98 6 59 C6.66 59 7.32 59 8 59 C8.33 58.01 8.66 57.02 9 56 C8.01 56 7.02 56 6 56 Z " fill="#F5F3F1" transform="translate(138,1)"/>
<path d="M0 0 C0.99 0 1.98 0 3 0 C3.268125 1.093125 3.53625 2.18625 3.8125 3.3125 C4.98423451 7.41698591 4.98423451 7.41698591 8 10 C10.67479327 9.73904456 12.60095141 9.1995243 15 8 C17.29063755 7.92823817 19.58333893 7.91606034 21.875 7.9375 C23.10992187 7.94652344 24.34484375 7.95554687 25.6171875 7.96484375 C26.73351562 7.97644531 27.84984375 7.98804688 29 8 C33.0404226 8.16169042 33.0404226 8.16169042 37 7 C37 10.63 37 14.26 37 18 C35.35 17.34 33.7 16.68 32 16 C32 15.34 32 14.68 32 14 C31.236875 13.855625 30.47375 13.71125 29.6875 13.5625 C27 13 27 13 24 12 C19.22980916 11.81653112 14.68621257 12.06275749 10 13 C9.67 13.66 9.34 14.32 9 15 C7 13 5 11 3 9 C2.67 9.66 2.34 10.32 2 11 C2.66 11 3.32 11 4 11 C4.66 12.65 5.32 14.3 6 16 C6.66 16 7.32 16 8 16 C7.46274105 19.37705625 6.88935377 22.696686 6 26 C6.66 26 7.32 26 8 26 C8.33 24.68 8.66 23.36 9 22 C9.66 22 10.32 22 11 22 C10.4978686 25.73011894 9.94433475 29.35756596 9 33 C9 33.66 9 34.32 9 35 C9.66 35 10.32 35 11 35 C11.33 33.68 11.66 32.36 12 31 C12.66 31 13.32 31 14 31 C13.45276317 34.37462715 12.9451 36.08235 11 39 C11.66 39 12.32 39 13 39 C13.12117188 39.78246094 13.24234375 40.56492188 13.3671875 41.37109375 C13.61855469 42.88896484 13.61855469 42.88896484 13.875 44.4375 C14.03742188 45.44683594 14.19984375 46.45617188 14.3671875 47.49609375 C14.57601562 48.32238281 14.78484375 49.14867187 15 50 C18.15669043 51.57834521 21.54020882 51.06048586 25 51 C32.72972973 50.86486486 32.72972973 50.86486486 35 52 C34.98428955 51.44014404 34.9685791 50.88028809 34.95239258 50.3034668 C34.89000152 47.7649141 34.85099782 45.22652271 34.8125 42.6875 C34.78736328 41.80642578 34.76222656 40.92535156 34.73632812 40.01757812 C34.72666016 39.17001953 34.71699219 38.32246094 34.70703125 37.44921875 C34.6913208 36.66893311 34.67561035 35.88864746 34.65942383 35.0847168 C35.0904519 32.44633064 35.86141406 31.56554375 38 30 C38.99 30 39.98 30 41 30 C41 30.66 41 31.32 41 32 C40.01 32.495 40.01 32.495 39 33 C38.67 40.26 38.34 47.52 38 55 C35.69 54.67 33.38 54.34 31 54 C29.54279072 53.93907988 28.08326541 53.91235749 26.625 53.9375 C25.48804687 53.94910156 25.48804687 53.94910156 24.328125 53.9609375 C23.55984375 53.97382812 22.7915625 53.98671875 22 54 C12.06056816 54.16676899 4.88742377 53.58072482 -3 47 C-5.0625 44.125 -5.0625 44.125 -6 42 C-8.00962303 44.93482581 -8.00962303 44.93482581 -9.625 47.875 C-12.98526605 52.2964027 -16.68782971 55.33525378 -22.23828125 56.44921875 C-27.8855347 56.7320691 -32.41846083 55.28906286 -37 52 C-41.9535194 47.46385031 -44.70464762 42.87133922 -45.22705078 36.02392578 C-45.21657715 35.0079834 -45.20610352 33.99204102 -45.1953125 32.9453125 C-45.18886719 31.83671875 -45.18242188 30.728125 -45.17578125 29.5859375 C-45.15902344 28.44382812 -45.14226563 27.30171875 -45.125 26.125 C-45.11597656 24.9596875 -45.10695312 23.794375 -45.09765625 22.59375 C-45.07417432 19.72895423 -45.04133141 16.86458465 -45 14 C-45.99 14 -46.98 14 -48 14 C-47.125 9.125 -47.125 9.125 -46 8 C-44.65732587 7.91368126 -43.31025678 7.89293527 -41.96484375 7.90234375 C-41.15595703 7.90556641 -40.34707031 7.90878906 -39.51367188 7.91210938 C-38.66353516 7.92048828 -37.81339844 7.92886719 -36.9375 7.9375 C-36.08349609 7.94201172 -35.22949219 7.94652344 -34.34960938 7.95117188 C-32.23304337 7.96299627 -30.11651315 7.98093231 -28 8 C-29.375 10.5 -29.375 10.5 -31 13 C-31.66 13 -32.32 13 -33 13 C-32.90639526 17.21792077 -32.80028691 21.43528583 -32.68261719 25.65258789 C-32.64435134 27.08707068 -32.60949419 28.52164865 -32.578125 29.95629883 C-32.53242138 32.01938878 -32.47443807 34.08182495 -32.4140625 36.14453125 C-32.3826416 37.38565674 -32.3512207 38.62678223 -32.31884766 39.90551758 C-32.22600791 43.16636101 -32.22600791 43.16636101 -30 46 C-24.71844821 46.5194969 -21.26300246 46.48791111 -17 43 C-15.9407082 39.82212459 -15.88541061 37.57411057 -15.90234375 34.23828125 C-15.90556641 33.12001953 -15.90878906 32.00175781 -15.91210938 30.84960938 C-15.92048828 29.68236328 -15.92886719 28.51511719 -15.9375 27.3125 C-15.94201172 26.13365234 -15.94652344 24.95480469 -15.95117188 23.74023438 C-15.96296727 20.82677211 -15.9794273 17.91341137 -16 15 C-16.99 14.67 -17.98 14.34 -19 14 C-18.814375 13.38125 -18.62875 12.7625 -18.4375 12.125 C-17.76313824 9.95839822 -17.76313824 9.95839822 -19 8 C-17.57107422 8.13921875 -17.57107422 8.13921875 -16.11328125 8.28125 C-12.27109139 8.50238323 -8.80762496 8.58845113 -5 8 C-2.86030261 6.03285885 -1.98539626 4.42377977 -0.89453125 1.75 C-0.59933594 1.1725 -0.30414063 0.595 0 0 Z M-7 13 C-6 15 -6 15 -6 15 Z M-7 16 C-6 19 -6 19 -6 19 Z " fill="#726A45" transform="translate(82,5)"/>
<path d="M0 0 C1.32 0.33 2.64 0.66 4 1 C4 4.96 4 8.92 4 13 C-1 13 -1 13 -2.75 11.5625 C-6.19161985 9.17248622 -9.89611165 9.25430077 -14 9 C-13.98471771 11.87113317 -13.98471771 11.87113317 -13 15 C-10.25616113 17.21678561 -10.25616113 17.21678561 -6.8125 18.9375 C-0.81391165 22.30618953 3.84215202 25.68430403 7 32 C7.13078047 36.67073094 6.66638191 40.72535485 3.6875 44.4375 C-0.65258502 48.5757206 -3.74661552 49.37640917 -9.60546875 49.26953125 C-13.40147164 48.84224871 -16.50867509 47.52348724 -20 46 C-20 46.99 -20 47.98 -20 49 C-21.32 49 -22.64 49 -24 49 C-24.93619813 45.84493858 -25.1057123 43.03413498 -25.0625 39.75 C-25.05347656 38.85796875 -25.04445313 37.9659375 -25.03515625 37.046875 C-25.02355469 36.37140625 -25.01195313 35.6959375 -25 35 C-23.88625 35.66 -22.7725 36.32 -21.625 37 C-16.8156108 39.43480706 -12.30676735 39.63101912 -7 39 C-5.7025282 37.89798747 -5.7025282 37.89798747 -5.55078125 35.1953125 C-5.66489155 31.77146996 -5.66489155 31.77146996 -8.66796875 29.8046875 C-9.82848315 29.13888381 -11.00253423 28.49624419 -12.1875 27.875 C-24.5872925 20.94447624 -24.5872925 20.94447624 -26 16 C-26 10.27705114 -24.17589793 7.44091027 -20.47265625 3.3828125 C-17.51252698 0.60327467 -15.06271033 0.86537235 -11.125 0.875 C-9.55105469 0.87113281 -9.55105469 0.87113281 -7.9453125 0.8671875 C-5.44323315 0.98001336 -3.38243077 1.27491238 -1 2 C-0.67 1.34 -0.34 0.68 0 0 Z " fill="#F4F2F1" transform="translate(27,12)"/>
<path d="M0 0 C0.5018072 6.14713824 -0.58387923 9.06560333 -4 14 C-6.64158305 16.4814871 -7.33173827 17 -11 17 C-11 17.66 -11 18.32 -11 19 C-12.423125 19.12375 -12.423125 19.12375 -13.875 19.25 C-17.10461791 19.65074923 -17.10461791 19.65074923 -18.375 22.0625 C-18.58125 22.701875 -18.7875 23.34125 -19 24 C-23.53947368 24.37828947 -23.53947368 24.37828947 -25.75 22.5625 C-29.92812895 19.66102156 -35.14551205 19.73507315 -40.0625 20.4375 C-40.701875 20.623125 -41.34125 20.80875 -42 21 C-41.319375 22.2375 -41.319375 22.2375 -40.625 23.5 C-37.84589624 29.48576195 -36.30114196 35.36084859 -37 42 C-38.1520299 45.12550721 -39.52449021 48.00287074 -41 51 C-37.37 51 -33.74 51 -30 51 C-29.89167831 48.91781638 -29.81426459 46.83400871 -29.75 44.75 C-29.70359375 43.58984375 -29.6571875 42.4296875 -29.609375 41.234375 C-30.07209511 37.40305252 -31.09120297 36.40491093 -34 34 C-34 33.67 -34 33.34 -34 33 C-27.07 33 -20.14 33 -13 33 C-13.33 34.32 -13.66 35.64 -14 37 C-14.99 37.495 -14.99 37.495 -16 38 C-16.33 45.26 -16.66 52.52 -17 60 C-19.31 59.67 -21.62 59.34 -24 59 C-25.485 59.495 -25.485 59.495 -27 60 C-34.30974889 60.42998523 -41.00285126 60.19518392 -48 58 C-48 57.67 -48 57.34 -48 57 C-43.56255461 56.94206409 -39.12520611 56.90642533 -34.6875 56.875 C-33.42486328 56.85824219 -32.16222656 56.84148438 -30.86132812 56.82421875 C-29.04858398 56.81455078 -29.04858398 56.81455078 -27.19921875 56.8046875 C-26.08377686 56.79421387 -24.96833496 56.78374023 -23.8190918 56.77294922 C-21 57 -21 57 -18 59 C-18 51.74 -18 44.48 -18 37 C-17.01 36.67 -16.02 36.34 -15 36 C-15 35.34 -15 34.68 -15 34 C-17.63186061 34.8070043 -17.63186061 34.8070043 -20 37 C-20.80103956 40.20956544 -20.79079971 43.3914677 -20.8125 46.6875 C-20.83763672 47.58017578 -20.86277344 48.47285156 -20.88867188 49.39257812 C-20.94757338 51.59549439 -20.98382754 53.79642319 -21 56 C-23.93774463 56.05390357 -26.87450232 56.0936255 -29.8125 56.125 C-30.64587891 56.14175781 -31.47925781 56.15851562 -32.33789062 56.17578125 C-33.54155273 56.18544922 -33.54155273 56.18544922 -34.76953125 56.1953125 C-35.87711792 56.21102295 -35.87711792 56.21102295 -37.00708008 56.22705078 C-39 56 -39 56 -42 54 C-42.51171875 51.3984375 -42.51171875 51.3984375 -42.6875 48.375 C-42.75324219 47.37210938 -42.81898437 46.36921875 -42.88671875 45.3359375 C-42.92410156 44.56507812 -42.96148437 43.79421875 -43 43 C-43.66 43 -44.32 43 -45 43 C-44.690625 42.4225 -44.38125 41.845 -44.0625 41.25 C-43.07416636 39.15705816 -42.4831387 37.25464725 -42 35 C-42.66 35 -43.32 35 -44 35 C-44.33 36.32 -44.66 37.64 -45 39 C-45.66 39 -46.32 39 -47 39 C-47.625 36.6875 -47.625 36.6875 -48 34 C-47.34 33.01 -46.68 32.02 -46 31 C-45.61500109 29.34450469 -45.27206865 27.6777567 -45 26 C-45.66 26 -46.32 26 -47 26 C-47.33 27.32 -47.66 28.64 -48 30 C-48.66 30 -49.32 30 -50 30 C-49.46274105 26.62294375 -48.88935377 23.303314 -48 20 C-48.66 20 -49.32 20 -50 20 C-50.66 18.35 -51.32 16.7 -52 15 C-52.66 15 -53.32 15 -54 15 C-53.67 14.01 -53.34 13.02 -53 12 C-51.5 13.375 -51.5 13.375 -50 15 C-50 15.66 -50 16.32 -50 17 C-46.06152637 17.19266973 -46.06152637 17.19266973 -42.6875 16 C-35.8966598 14.15841622 -30.1916653 14.7291855 -24 18 C-22.9791608 18.97871719 -21.97641493 19.97695851 -21 21 C-20.34 21.33 -19.68 21.66 -19 22 C-19 18.7 -19 15.4 -19 12 C-18.67 12 -18.34 12 -18 12 C-18 13.65 -18 15.3 -18 17 C-17.34 16.34 -16.68 15.68 -16 15 C-16.04125 14.236875 -16.0825 13.47375 -16.125 12.6875 C-15.94638243 8.84722233 -14.74609882 7.6791208 -12 5 C-4.4109589 0 -4.4109589 0 0 0 Z " fill="#7B7E3A" transform="translate(138,1)"/>
<path d="M0 0 C2.29160319 -0.02692484 4.58329546 -0.04636124 6.875 -0.0625 C8.15117187 -0.07410156 9.42734375 -0.08570313 10.7421875 -0.09765625 C14 0 14 0 16 1 C15.625 2.9375 15.625 2.9375 15 5 C14.34 5.33 13.68 5.66 13 6 C13 17.88 13 29.76 13 42 C13.99 42.33 14.98 42.66 16 43 C16 44.32 16 45.64 16 47 C10.39 47 4.78 47 -1 47 C-1 46.01 -1 45.02 -1 44 C-2.485 44.495 -2.485 44.495 -4 45 C-4 43.68 -4 42.36 -4 41 C-3.01 41 -2.02 41 -1 41 C-1 36.05 -1 31.1 -1 26 C-5.29 26 -9.58 26 -14 26 C-13.67 31.94 -13.34 37.88 -13 44 C-12.34 44 -11.68 44 -11 44 C-11 44.66 -11 45.32 -11 46 C-15.95 46 -20.9 46 -26 46 C-25.67 45.01 -25.34 44.02 -25 43 C-22.36 42.67 -19.72 42.34 -17 42 C-17.66 41.34 -18.32 40.68 -19 40 C-19.30675232 37.10032243 -19.51173371 34.28216822 -19.625 31.375 C-19.66367188 30.57320312 -19.70234375 29.77140625 -19.7421875 28.9453125 C-19.83653931 26.96392444 -19.91936215 24.98199355 -20 23 C-15.34462644 22.07907719 -10.85314567 21.87794003 -6.125 21.9375 C-5.09246094 21.94426758 -5.09246094 21.94426758 -4.0390625 21.95117188 C-2.35933665 21.96283664 -0.67965625 21.98076729 1 22 C1 21.01 1 20.02 1 19 C0.34 19 -0.32 19 -1 19 C-1 14.71 -1 10.42 -1 6 C-2.32 5.67 -3.64 5.34 -5 5 C-5.33 4.01 -5.66 3.02 -6 2 C-3.525 2.495 -3.525 2.495 -1 3 C-0.67 2.01 -0.34 1.02 0 0 Z " fill="#EFEAE7" transform="translate(174,13)"/>
<path d="M0 0 C0.74886475 0.00523682 1.49772949 0.01047363 2.26928711 0.01586914 C3.07817383 0.0190918 3.88706055 0.02231445 4.72045898 0.02563477 C5.5705957 0.03401367 6.42073242 0.04239258 7.29663086 0.05102539 C8.15063477 0.05553711 9.00463867 0.06004883 9.88452148 0.06469727 C12.00108749 0.07652166 14.11761771 0.0944577 16.23413086 0.11352539 C14.85913086 2.61352539 14.85913086 2.61352539 13.23413086 5.11352539 C12.57413086 5.11352539 11.91413086 5.11352539 11.23413086 5.11352539 C11.3277356 9.33144616 11.43384395 13.54881122 11.55151367 17.76611328 C11.58977952 19.20059608 11.62463667 20.63517404 11.65600586 22.06982422 C11.70170948 24.13291417 11.75969279 26.19535034 11.82006836 28.25805664 C11.85148926 29.49918213 11.88291016 30.74030762 11.9152832 32.01904297 C12.00812295 35.2798864 12.00812295 35.2798864 14.23413086 38.11352539 C19.51568265 38.63302229 22.9711284 38.6014365 27.23413086 35.11352539 C28.29342266 31.93564998 28.34872025 29.68763596 28.33178711 26.35180664 C28.32856445 25.23354492 28.3253418 24.1152832 28.32202148 22.96313477 C28.31364258 21.79588867 28.30526367 20.62864258 28.29663086 19.42602539 C28.29211914 18.24717773 28.28760742 17.06833008 28.28295898 15.85375977 C28.27116359 12.9402975 28.25470356 10.02693676 28.23413086 7.11352539 C27.24413086 6.78352539 26.25413086 6.45352539 25.23413086 6.11352539 C25.41975586 5.49477539 25.60538086 4.87602539 25.79663086 4.23852539 C26.47099262 2.07192361 26.47099262 2.07192361 25.23413086 0.11352539 C30.18413086 0.11352539 35.13413086 0.11352539 40.23413086 0.11352539 C40.23413086 0.77352539 40.23413086 1.43352539 40.23413086 2.11352539 C36.27413086 2.11352539 32.31413086 2.11352539 28.23413086 2.11352539 C28.23413086 2.77352539 28.23413086 3.43352539 28.23413086 4.11352539 C31.86413086 4.11352539 35.49413086 4.11352539 39.23413086 4.11352539 C38.57413086 4.44352539 37.91413086 4.77352539 37.23413086 5.11352539 C37.44038086 6.22727539 37.64663086 7.34102539 37.85913086 8.48852539 C37.98288086 9.68477539 38.10663086 10.88102539 38.23413086 12.11352539 C37.57413086 12.77352539 36.91413086 13.43352539 36.23413086 14.11352539 C36.23413086 11.14352539 36.23413086 8.17352539 36.23413086 5.11352539 C35.57413086 5.44352539 34.91413086 5.77352539 34.23413086 6.11352539 C34.21954834 6.90001465 34.20496582 7.68650391 34.18994141 8.49682617 C34.11523723 12.07787497 34.01864879 15.6580145 33.92163086 19.23852539 C33.89907227 20.47602539 33.87651367 21.71352539 33.85327148 22.98852539 C33.81782227 24.18735352 33.78237305 25.38618164 33.74584961 26.62133789 C33.71966553 27.72106934 33.69348145 28.82080078 33.66650391 29.95385742 C33.07712433 34.26088764 31.68224585 37.76173734 28.47241211 40.75805664 C23.63439852 43.69226772 19.89605516 44.81020802 14.23413086 45.11352539 C18.19413086 45.44352539 22.15413086 45.77352539 26.23413086 46.11352539 C23.88392588 48.46373037 23.31503464 48.43267341 20.10913086 48.48852539 C14.20337402 48.32737312 9.82901566 46.48977245 5.47241211 42.50024414 C0.68157577 37.26860446 -1.03473657 32.19366651 -0.96118164 25.05883789 C-0.95473633 23.95024414 -0.94829102 22.84165039 -0.94165039 21.69946289 C-0.92489258 20.55735352 -0.90813477 19.41524414 -0.89086914 18.23852539 C-0.8818457 17.07321289 -0.87282227 15.90790039 -0.86352539 14.70727539 C-0.84004346 11.84247962 -0.80720055 8.97811004 -0.76586914 6.11352539 C-1.75586914 6.11352539 -2.74586914 6.11352539 -3.76586914 6.11352539 C-2.69972178 0.17356154 -2.69972178 0.17356154 0 0 Z " fill="#F4F2F1" transform="translate(37.765869140625,12.886474609375)"/>
<path d="M0 0 C0.99 0 1.98 0 3 0 C3.268125 1.093125 3.53625 2.18625 3.8125 3.3125 C4.98423451 7.41698591 4.98423451 7.41698591 8 10 C10.67479327 9.73904456 12.60095141 9.1995243 15 8 C17.29063755 7.92823817 19.58333893 7.91606034 21.875 7.9375 C23.10992187 7.94652344 24.34484375 7.95554687 25.6171875 7.96484375 C27.29167969 7.98224609 27.29167969 7.98224609 29 8 C33.0404226 8.16169042 33.0404226 8.16169042 37 7 C37 10.63 37 14.26 37 18 C34.525 17.01 34.525 17.01 32 16 C32 15.34 32 14.68 32 14 C31.236875 13.855625 30.47375 13.71125 29.6875 13.5625 C27 13 27 13 24 12 C19.22980916 11.81653112 14.68621257 12.06275749 10 13 C9.67 13.66 9.34 14.32 9 15 C7 13 5 11 3 9 C2.67 9.66 2.34 10.32 2 11 C2.66 11 3.32 11 4 11 C4.66 12.65 5.32 14.3 6 16 C6.66 16 7.32 16 8 16 C7.46274105 19.37705625 6.88935377 22.696686 6 26 C6.66 26 7.32 26 8 26 C8.33 24.68 8.66 23.36 9 22 C9.66 22 10.32 22 11 22 C10.4978686 25.73011894 9.94433475 29.35756596 9 33 C9 33.66 9 34.32 9 35 C9.66 35 10.32 35 11 35 C11.33 33.68 11.66 32.36 12 31 C12.66 31 13.32 31 14 31 C13.45276317 34.37462715 12.9451 36.08235 11 39 C11.66 39 12.32 39 13 39 C13.33 42.3 13.66 45.6 14 49 C13.34 48.67 12.68 48.34 12 48 C12 47.34 12 46.68 12 46 C11.34 46 10.68 46 10 46 C9.67 46.66 9.34 47.32 9 48 C7.74335022 45.09399739 7 43.20395416 7 40 C6.690625 38.95070312 6.38125 37.90140625 6.0625 36.8203125 C4.76395183 32.15126796 4.27421764 27.59178588 3.7890625 22.78515625 C3.35613718 18.8813641 2.66489901 15.56565871 1 12 C0.34 13.32 -0.32 14.64 -1 16 C-2.15941038 12.52176885 -1.70820884 10.54104422 -1 7 C-1.99 7.33 -2.98 7.66 -4 8 C-2.87548273 5.0280615 -1.77706209 2.66559313 0 0 Z " fill="#C6B4A4" transform="translate(82,5)"/>
<path d="M0 0 C6.93 0 13.86 0 21 0 C20.67 1.32 20.34 2.64 20 4 C19.34 4.33 18.68 4.66 18 5 C17.67 12.26 17.34 19.52 17 27 C14.69 26.67 12.38 26.34 10 26 C9.01 26.33 8.02 26.66 7 27 C-0.30974889 27.42998523 -7.00285126 27.19518392 -14 25 C-14 24.67 -14 24.34 -14 24 C-9.56255461 23.94206409 -5.12520611 23.90642533 -0.6875 23.875 C0.57513672 23.85824219 1.83777344 23.84148438 3.13867188 23.82421875 C4.95141602 23.81455078 4.95141602 23.81455078 6.80078125 23.8046875 C7.91622314 23.79421387 9.03166504 23.78374023 10.1809082 23.77294922 C13 24 13 24 16 26 C16 18.74 16 11.48 16 4 C16.99 3.67 17.98 3.34 19 3 C19 2.34 19 1.68 19 1 C16.36813939 1.8070043 16.36813939 1.8070043 14 4 C13.19896044 7.20956544 13.20920029 10.3914677 13.1875 13.6875 C13.16236328 14.58017578 13.13722656 15.47285156 13.11132812 16.39257812 C13.05242662 18.59549439 13.01617246 20.79642319 13 23 C10.04160645 23.02689449 7.08345573 23.04678741 4.125 23.0625 C3.28324219 23.07087891 2.44148438 23.07925781 1.57421875 23.08789062 C0.76855469 23.09111328 -0.03710938 23.09433594 -0.8671875 23.09765625 C-1.98262939 23.10551147 -1.98262939 23.10551147 -3.12060547 23.11352539 C-5 23 -5 23 -7 22 C-7 20.68 -7 19.36 -7 18 C-3.37 18 0.26 18 4 18 C4.10832169 15.91781638 4.18573541 13.83400871 4.25 11.75 C4.29640625 10.58984375 4.3428125 9.4296875 4.390625 8.234375 C3.92790489 4.40305252 2.90879703 3.40491093 0 1 C0 0.67 0 0.34 0 0 Z " fill="#EFEFEF" transform="translate(104,34)"/>
<path d="M0 0 C0.33 0.66 0.66 1.32 1 2 C3.02463255 2.65213292 3.02463255 2.65213292 5 3 C4.01 3.33 3.02 3.66 2 4 C2.11810088 8.9480849 2.2423384 13.89596276 2.37231445 18.84375 C2.41567817 20.52762642 2.4573522 22.21154723 2.49731445 23.89550781 C2.55498234 26.31328724 2.6186865 28.73084295 2.68359375 31.1484375 C2.70030624 31.9036972 2.71701874 32.65895691 2.73423767 33.43710327 C2.77555107 37.34739799 2.77555107 37.34739799 4 41 C3.15695313 41.13277344 2.31390625 41.26554687 1.4453125 41.40234375 C0.34960938 41.57894531 -0.74609375 41.75554688 -1.875 41.9375 C-2.96554688 42.11152344 -4.05609375 42.28554688 -5.1796875 42.46484375 C-7.93821546 42.85551159 -7.93821546 42.85551159 -10 44 C-9.67 42.35 -9.34 40.7 -9 39 C-8.01 39 -7.02 39 -6 39 C-6.33 27.12 -6.66 15.24 -7 3 C-6.01 3 -5.02 3 -4 3 C-3.34 2.34 -2.68 1.68 -2 1 C-1.34 0.67 -0.68 0.34 0 0 Z " fill="#F7F6F5" transform="translate(134,15)"/>
<path d="M0 0 C4.34156585 6.51234877 4.86276456 13.18519801 5.85546875 20.78320312 C5.97535156 21.65009766 6.09523438 22.51699219 6.21875 23.41015625 C6.32123047 24.19527588 6.42371094 24.98039551 6.52929688 25.78930664 C7.02522912 28.11849052 7.94006575 29.88209227 9 32 C8.5625 34.125 8.5625 34.125 8 36 C8.33 36.66 8.66 37.32 9 38 C10.485 37.505 10.485 37.505 12 37 C12.65613281 37.81984375 13.31226562 38.6396875 13.98828125 39.484375 C17.76861394 42.64200697 20.50845536 42.55487893 25.1875 42.25 C32.84536505 41.92268253 32.84536505 41.92268253 35 43 C34.98428955 42.44014404 34.9685791 41.88028809 34.95239258 41.3034668 C34.89000152 38.7649141 34.85099782 36.22652271 34.8125 33.6875 C34.78736328 32.80642578 34.76222656 31.92535156 34.73632812 31.01757812 C34.72666016 30.17001953 34.71699219 29.32246094 34.70703125 28.44921875 C34.6913208 27.66893311 34.67561035 26.88864746 34.65942383 26.0847168 C35.0904519 23.44633064 35.86141406 22.56554375 38 21 C38.99 21 39.98 21 41 21 C41 21.66 41 22.32 41 23 C40.01 23.495 40.01 23.495 39 24 C38.67 31.26 38.34 38.52 38 46 C35.69 45.67 33.38 45.34 31 45 C29.53080781 44.94890695 28.05941012 44.93378621 26.58984375 44.97265625 C25.82736328 44.98490234 25.06488281 44.99714844 24.27929688 45.00976562 C22.71410212 45.04501188 21.14898918 45.08409407 19.58398438 45.12695312 C14.96193736 45.19348555 11.3560355 44.77726248 7 43 C7.99 42.505 7.99 42.505 9 42 C8.66226563 41.50371094 8.32453125 41.00742187 7.9765625 40.49609375 C5.71753999 37.05532825 4.07077689 34.24980078 2.9375 30.25 C1.9212957 26.72715844 0.7784215 25.31535125 -2 23 C-1.01 23 -0.02 23 1 23 C1.05398987 20.72942623 1.09278742 18.45848712 1.125 16.1875 C1.14820312 14.92292969 1.17140625 13.65835937 1.1953125 12.35546875 C1.27581918 8.8661976 1.27581918 8.8661976 -1 6 C-0.625 2.8125 -0.625 2.8125 0 0 Z " fill="#49492C" transform="translate(82,14)"/>
<path d="M0 0 C4.95 0 9.9 0 15 0 C15 0.66 15 1.32 15 2 C11.04 2 7.08 2 3 2 C3 2.66 3 3.32 3 4 C6.63 4 10.26 4 14 4 C13.01 4.495 13.01 4.495 12 5 C12.20625 6.11375 12.4125 7.2275 12.625 8.375 C12.74875 9.57125 12.8725 10.7675 13 12 C12.34 12.66 11.68 13.32 11 14 C11 11.03 11 8.06 11 5 C10.01 5.495 10.01 5.495 9 6 C8.98541748 6.78648926 8.97083496 7.57297852 8.95581055 8.38330078 C8.88110637 11.96434958 8.78451793 15.54448911 8.6875 19.125 C8.66494141 20.3625 8.64238281 21.6 8.61914062 22.875 C8.58369141 24.07382812 8.54824219 25.27265625 8.51171875 26.5078125 C8.48553467 27.60754395 8.45935059 28.70727539 8.43237305 29.84033203 C7.71953623 35.04955512 6.08484093 38.15869479 1.9375 41.375 C-1 43 -1 43 -3 43 C-3 42.34 -3 41.68 -3 41 C-4.98 40.67 -6.96 40.34 -9 40 C-9 39.67 -9 39.34 -9 39 C-8.38511719 38.91363281 -7.77023438 38.82726563 -7.13671875 38.73828125 C-6.32847656 38.59777344 -5.52023438 38.45726562 -4.6875 38.3125 C-3.88699219 38.18488281 -3.08648437 38.05726562 -2.26171875 37.92578125 C0.89798339 36.63243167 1.51509624 35.03510115 3 32 C3.4089062 29.10565497 3.4089062 29.10565497 3.29296875 26.04296875 C3.28330078 24.93115234 3.27363281 23.81933594 3.26367188 22.67382812 C3.2259668 20.9480957 3.2259668 20.9480957 3.1875 19.1875 C3.17396484 18.01767578 3.16042969 16.84785156 3.14648438 15.64257812 C3.11120278 12.761248 3.0619028 9.88086096 3 7 C2.01 6.67 1.02 6.34 0 6 C0.185625 5.38125 0.37125 4.7625 0.5625 4.125 C1.23686176 1.95839822 1.23686176 1.95839822 0 0 Z " fill="#F0EEEC" transform="translate(63,13)"/>
<path d="M0 0 C0.2475 0.5775 0.495 1.155 0.75 1.75 C3.17545727 6.11582309 6.55468338 8.47737559 10.875 10.8125 C16.13578802 13.8663991 20.25162826 17.50325653 23 23 C23.13078047 27.67073094 22.66638191 31.72535485 19.6875 35.4375 C15.2715009 39.64810379 12.20614226 40.32103092 6.26171875 40.203125 C3.30667805 39.93773274 0.73637831 39.12261674 -2 38 C-2 37.34 -2 36.68 -2 36 C-2.99 36 -3.98 36 -5 36 C-5 36.99 -5 37.98 -5 39 C-5.66 39 -6.32 39 -7 39 C-7 37.35 -7 35.7 -7 34 C-5.25 33.375 -5.25 33.375 -3 33 C-2.39414063 33.31453125 -1.78828125 33.6290625 -1.1640625 33.953125 C2.71208486 35.82822878 6.79724286 35.55595528 11 35 C14.11068509 33.67842637 16.45144508 32.09710984 18 29 C18.61775627 23.35350331 18.61775627 23.35350331 16.25 18.4375 C12.51561853 15.25356204 8.0207409 13.00644324 3.7421875 10.6484375 C1.40401942 9.24287207 -0.34522568 8.1523638 -2 6 C-1.57894737 1.57894737 -1.57894737 1.57894737 0 0 Z " fill="#A29283" transform="translate(11,21)"/>
<path d="M0 0 C4.95 0 9.9 0 15 0 C13.515 1.485 13.515 1.485 12 3 C11.73827246 6.01296236 11.65139887 8.81480568 11.70703125 11.82421875 C11.71127609 12.68561966 11.71552094 13.54702057 11.71989441 14.43452454 C11.73668752 17.18583431 11.77434044 19.93641162 11.8125 22.6875 C11.82754604 24.5527238 11.84123459 26.41795907 11.85351562 28.28320312 C11.88659307 32.85575098 11.9383794 37.4277513 12 42 C12.99 42 13.98 42 15 42 C15 42.66 15 43.32 15 44 C10.05 44 5.1 44 0 44 C0.33 43.01 0.66 42.02 1 41 C4.465 40.505 4.465 40.505 8 40 C7.67 39.67 7.34 39.34 7 39 C6.91148471 36.40640678 6.88474055 33.83960309 6.90234375 31.24609375 C6.9037587 30.47064713 6.90517365 29.6952005 6.90663147 28.89625549 C6.91224655 26.40996506 6.92480154 23.9237634 6.9375 21.4375 C6.94251306 19.75586067 6.9470763 18.07421994 6.95117188 16.39257812 C6.96222087 12.26168434 6.97949555 8.13085724 7 4 C7.66 3.67 8.32 3.34 9 3 C6.03 2.67 3.06 2.34 0 2 C0 1.34 0 0.68 0 0 Z " fill="#3A2C23" transform="translate(174,15)"/>
<path d="M0 0 C2.79173055 -0.02690104 5.58320348 -0.04679053 8.375 -0.0625 C9.56609375 -0.07506836 9.56609375 -0.07506836 10.78125 -0.08789062 C16.7734375 -0.11328125 16.7734375 -0.11328125 19 1 C18.625 2.9375 18.625 2.9375 18 5 C17.01 5.495 17.01 5.495 16 6 C15.53045739 9.04581269 15.53045739 9.04581269 15.375 12.5625 C15.25125 14.686875 15.1275 16.81125 15 19 C19.95 19 24.9 19 30 19 C30 19.66 30 20.32 30 21 C23.4 21 16.8 21 10 21 C9.8046875 10.2578125 9.8046875 10.2578125 10 7 C10.66 6.34 11.32 5.68 12 5 C11.30132812 4.97421875 10.60265625 4.9484375 9.8828125 4.921875 C8.97273437 4.86515625 8.06265625 4.8084375 7.125 4.75 C5.76761719 4.68039063 5.76761719 4.68039063 4.3828125 4.609375 C2 4 2 4 0.6796875 1.953125 C0.45539063 1.30859375 0.23109375 0.6640625 0 0 Z " fill="#AD9D90" transform="translate(145,13)"/>
<path d="M0 0 C0.47064293 5.76537588 -0.28151221 9.60936573 -4 14 C-6.31457008 15.87421104 -8.19863583 16.79941536 -11 18 C-13.21875 17.59375 -13.21875 17.59375 -15 17 C-15.11843992 8.28620591 -15.11843992 8.28620591 -12.515625 5.29296875 C-10.72882439 4.02922729 -8.95362467 2.98325286 -7 2 C-6.2575 1.566875 -5.515 1.13375 -4.75 0.6875 C-3 0 -3 0 0 0 Z " fill="#643C23" transform="translate(138,1)"/>
<path d="M0 0 C0.99 0 1.98 0 3 0 C3.66 1.65 4.32 3.3 5 5 C5.66 5 6.32 5 7 5 C6.46274105 8.37705625 5.88935377 11.696686 5 15 C5.66 15 6.32 15 7 15 C7.33 13.68 7.66 12.36 8 11 C8.66 11 9.32 11 10 11 C9.4978686 14.73011894 8.94433475 18.35756596 8 22 C8 22.66 8 23.32 8 24 C8.66 24 9.32 24 10 24 C10.33 22.68 10.66 21.36 11 20 C11.66 20 12.32 20 13 20 C12.45276317 23.37462715 11.9451 25.08235 10 28 C10.66 28 11.32 28 12 28 C12.33 31.3 12.66 34.6 13 38 C12.34 37.67 11.68 37.34 11 37 C11 36.34 11 35.68 11 35 C10.34 35 9.68 35 9 35 C8.67 35.66 8.34 36.32 8 37 C6.74335022 34.09399739 6 32.20395416 6 29 C5.690625 27.94941406 5.38125 26.89882813 5.0625 25.81640625 C3.77064096 21.17616256 3.27710572 16.64954392 2.7890625 11.87304688 C2.32193166 7.68095031 1.47897773 3.95010303 0 0 Z " fill="#606133" transform="translate(83,16)"/>
<path d="M0 0 C0.66 0 1.32 0 2 0 C1.67 2.97 1.34 5.94 1 9 C2.32 9.66 3.64 10.32 5 11 C5.02694851 12.95825873 5.04637218 14.91662226 5.0625 16.875 C5.07410156 17.96554688 5.08570312 19.05609375 5.09765625 20.1796875 C5 23 5 23 4 25 C2.35 24.67 0.7 24.34 -1 24 C-0.67 23.34 -0.34 22.68 0 22 C0.33 22.33 0.66 22.66 1 23 C1 22.34 1 21.68 1 21 C-0.32 20.67 -1.64 20.34 -3 20 C-3.91297308 15.02936879 -3.91297308 10.97063121 -3 6 C-6.3 5.67 -9.6 5.34 -13 5 C-13 4.34 -13 3.68 -13 3 C-9.04 3 -5.08 3 -1 3 C-0.67 2.01 -0.34 1.02 0 0 Z " fill="#797D3F" transform="translate(79,12)"/>
<path d="M0 0 C0.66 0 1.32 0 2 0 C2.04969106 4.16258147 2.08585642 8.32500261 2.10986328 12.48779297 C2.11987856 13.90188609 2.13349474 15.31595873 2.15087891 16.72998047 C2.17532559 18.77055946 2.18652784 20.81086303 2.1953125 22.8515625 C2.20578613 24.07697754 2.21625977 25.30239258 2.22705078 26.56494141 C1.91007357 31.36049989 1.11550538 34.79653362 -2.1796875 38.3515625 C-5.72130825 40.42159568 -8.04591289 40.4702653 -12.125 40.375 C-13.95417969 40.35566406 -13.95417969 40.35566406 -15.8203125 40.3359375 C-19 40 -19 40 -22 38 C-21.29875 37.98582031 -20.5975 37.97164062 -19.875 37.95703125 C-13.34131175 37.62857138 -7.80389937 36.76777982 -3 32 C-1.11633679 28.13782519 -0.70743206 24.87802761 -0.5859375 20.60546875 C-0.54726562 19.40341797 -0.50859375 18.20136719 -0.46875 16.96289062 C-0.4378125 15.71701172 -0.406875 14.47113281 -0.375 13.1875 C-0.33632812 11.92228516 -0.29765625 10.65707031 -0.2578125 9.35351562 C-0.16369343 6.23582149 -0.07805639 3.11813086 0 0 Z " fill="#3D3935" transform="translate(71,19)"/>
<path d="M0 0 C1 2 1 2 0.875 5 C0.91625 5.99 0.9575 6.98 1 8 C1.99 8.66 2.98 9.32 4 10 C2.576875 10.12375 2.576875 10.12375 1.125 10.25 C-2.10461791 10.65074923 -2.10461791 10.65074923 -3.375 13.0625 C-3.684375 14.0215625 -3.684375 14.0215625 -4 15 C-8.53947368 15.37828947 -8.53947368 15.37828947 -10.75 13.5625 C-14.20181825 11.16540399 -17.86341793 11.08154552 -22 11 C-22.928125 11.185625 -23.85625 11.37125 -24.8125 11.5625 C-27.54862188 12.10972438 -28.68523121 11.45744702 -31 10 C-31 9.34 -31 8.68 -31 8 C-23.72658353 5.62500687 -18.03204082 5.31588857 -10.796875 8.05078125 C-8.79905995 9.10614877 -7.55198877 10.37389941 -6 12 C-5.34 12.33 -4.68 12.66 -4 13 C-4 9.7 -4 6.4 -4 3 C-3.67 3 -3.34 3 -3 3 C-3 4.65 -3 6.3 -3 8 C-0.70941092 6.16918103 -0.70941092 6.16918103 -0.9375 3.4375 C-0.958125 2.633125 -0.97875 1.82875 -1 1 C-0.67 0.67 -0.34 0.34 0 0 Z " fill="#F4F1EF" transform="translate(123,10)"/>
<path d="M0 0 C2.64 0 5.28 0 8 0 C7.5155542 0.4940332 7.0311084 0.98806641 6.53198242 1.49707031 C4.42863865 4.93348153 4.52185827 8.13246641 4.48828125 12.046875 C4.47033005 12.81807678 4.45237885 13.58927856 4.43388367 14.3838501 C4.37984231 16.83917832 4.3459058 19.29431286 4.3125 21.75 C4.27932136 23.41799566 4.24483118 25.08596579 4.20898438 26.75390625 C4.12411978 30.8357976 4.05727974 34.91763214 4 39 C3.01 39 2.02 39 1 39 C1 27.45 1 15.9 1 4 C1.66 3.67 2.32 3.34 3 3 C2.01 2.67 1.02 2.34 0 2 C0 1.34 0 0.68 0 0 Z " fill="#171311" transform="translate(135,15)"/>
<path d="M0 0 C0.33 0 0.66 0 1 0 C1 12.87 1 25.74 1 39 C1.66 39 2.32 39 3 39 C3 39.66 3 40.32 3 41 C-1.95 41 -6.9 41 -12 41 C-11.67 40.01 -11.34 39.02 -11 38 C-9.72125 37.855625 -8.4425 37.71125 -7.125 37.5625 C-4.74307106 37.29357254 -3.15547309 37.07773654 -1 36 C-1.00523682 34.94498291 -1.01047363 33.88996582 -1.01586914 32.80297852 C-1.03391901 28.9024337 -1.04543195 25.0018926 -1.05493164 21.10131836 C-1.0599719 19.41055684 -1.06680405 17.71979971 -1.07543945 16.02905273 C-1.08751857 13.60399293 -1.09323123 11.17899056 -1.09765625 8.75390625 C-1.10281754 7.99348526 -1.10797882 7.23306427 -1.11329651 6.44960022 C-1.11349238 4.6326743 -1.06197277 2.81586873 -1 1 C-0.67 0.67 -0.34 0.34 0 0 Z " fill="#A19489" transform="translate(140,18)"/>
<path d="M0 0 C1.32 0 2.64 0 4 0 C4 5.94 4 11.88 4 18 C4.66 18 5.32 18 6 18 C6 18.66 6 19.32 6 20 C6.66 20 7.32 20 8 20 C8 20.66 8 21.32 8 22 C3.05 22 -1.9 22 -7 22 C-6.505 20.515 -6.505 20.515 -6 19 C-2.04 18.505 -2.04 18.505 2 18 C1.34 17.34 0.68 16.68 0 16 C-0.14507695 13.25514407 -0.18652423 10.61519457 -0.125 7.875 C-0.11597656 7.12089844 -0.10695312 6.36679687 -0.09765625 5.58984375 C-0.0740687 3.72642746 -0.03819719 1.86317407 0 0 Z " fill="#625144" transform="translate(155,37)"/>
<path d="M0 0 C5.61 0 11.22 0 17 0 C16.67 1.32 16.34 2.64 16 4 C15.34 4.33 14.68 4.66 14 5 C13.67 12.26 13.34 19.52 13 27 C10.69 26.67 8.38 26.34 6 26 C5.01 26.33 4.02 26.66 3 27 C-4.30974889 27.42998523 -11.00285126 27.19518392 -18 25 C-18 24.67 -18 24.34 -18 24 C-13.56255461 23.94206409 -9.12520611 23.90642533 -4.6875 23.875 C-3.42486328 23.85824219 -2.16222656 23.84148438 -0.86132812 23.82421875 C0.95141602 23.81455078 0.95141602 23.81455078 2.80078125 23.8046875 C3.91622314 23.79421387 5.03166504 23.78374023 6.1809082 23.77294922 C9 24 9 24 12 26 C12 18.74 12 11.48 12 4 C12.99 3.67 13.98 3.34 15 3 C15 2.34 15 1.68 15 1 C14.38125 1.350625 13.7625 1.70125 13.125 2.0625 C8.62988551 3.41103435 4.59045013 2.65959866 0 2 C0 1.34 0 0.68 0 0 Z " fill="#D4C3B6" transform="translate(108,34)"/>
<path d="M0 0 C0 0.66 0 1.32 0 2 C-0.99 2.495 -0.99 2.495 -2 3 C-2.33 10.26 -2.66 17.52 -3 25 C-5.31 24.67 -7.62 24.34 -10 24 C-12.31170807 23.93599922 -14.62502904 23.91366009 -16.9375 23.9375 C-18.65259766 23.95103516 -18.65259766 23.95103516 -20.40234375 23.96484375 C-21.25957031 23.97644531 -22.11679688 23.98804687 -23 24 C-23 23.67 -23 23.34 -23 23 C-21.48279017 22.63061893 -19.96092928 22.28032835 -18.4375 21.9375 C-17.59058594 21.74027344 -16.74367188 21.54304688 -15.87109375 21.33984375 C-12.41591448 20.93086335 -9.41299242 21.39671457 -6 22 C-6.01571045 21.44014404 -6.0314209 20.88028809 -6.04760742 20.3034668 C-6.10999848 17.7649141 -6.14900218 15.22652271 -6.1875 12.6875 C-6.21263672 11.80642578 -6.23777344 10.92535156 -6.26367188 10.01757812 C-6.27333984 9.17001953 -6.28300781 8.32246094 -6.29296875 7.44921875 C-6.3086792 6.66893311 -6.32438965 5.88864746 -6.34057617 5.0847168 C-5.69148726 1.11154816 -3.88835318 0 0 0 Z " fill="#241C15" transform="translate(123,35)"/>
<path d="M0 0 C0.99 0 1.98 0 3 0 C3 11.55 3 23.1 3 35 C2.01 35 1.02 35 0 35 C0 23.45 0 11.9 0 0 Z " fill="#111111" transform="translate(181,19)"/>
<path d="M0 0 C6.93 0 13.86 0 21 0 C21 5.61 21 11.22 21 17 C20.34 17.33 19.68 17.66 19 18 C19 13.05 19 8.1 19 3 C14.71 3 10.42 3 6 3 C6 8.28 6 13.56 6 19 C5.67 19 5.34 19 5 19 C5 13.06 5 7.12 5 1 C3.35 1.33 1.7 1.66 0 2 C0 1.34 0 0.68 0 0 Z " fill="#D0C6BE" transform="translate(154,36)"/>
<path d="M0 0 C0.33 0 0.66 0 1 0 C1.1083667 2.7302389 1.18746694 5.45614543 1.25 8.1875 C1.30027344 9.34088867 1.30027344 9.34088867 1.3515625 10.51757812 C1.41965234 14.48381124 1.3032005 16.50337849 -0.8125 19.96875 C-3.39446319 22.36628725 -5.6087009 23.15217523 -9 24 C-9 23.34 -9 22.68 -9 22 C-10.98 21.67 -12.96 21.34 -15 21 C-15 20.67 -15 20.34 -15 20 C-14.38511719 19.91363281 -13.77023438 19.82726562 -13.13671875 19.73828125 C-8.08885029 18.91059287 -8.08885029 18.91059287 -4 16.0625 C-2.7337245 12.18453127 -2.49005155 8.48933625 -2.30859375 4.42578125 C-2 2 -2 2 0 0 Z " fill="#F5F5F5" transform="translate(69,32)"/>
<path d="M0 0 C2.67628667 1.15731315 4.56839195 2.1292449 5.89453125 4.8046875 C6.38623234 6.19827882 6.85597721 7.59979056 7.3046875 9.0078125 C7.99021555 11.21623027 7.99021555 11.21623027 9.75 13.75 C11 16 11 16 10.6875 18.3125 C10.460625 18.869375 10.23375 19.42625 10 20 C6.40608886 18.66511872 3.24509304 17.03977277 0 15 C0.33 14.01 0.66 13.02 1 12 C3.0625 11.3125 3.0625 11.3125 5 11 C4.4946875 10.66226563 3.989375 10.32453125 3.46875 9.9765625 C2.8190625 9.53054687 2.169375 9.08453125 1.5 8.625 C0.52546875 7.96371094 0.52546875 7.96371094 -0.46875 7.2890625 C-0.9740625 6.86367188 -1.479375 6.43828125 -2 6 C-2 5.34 -2 4.68 -2 4 C-0.68 4.33 0.64 4.66 2 5 C1.34 4.34 0.68 3.68 0 3 C0 2.01 0 1.02 0 0 Z " fill="#656734" transform="translate(80,38)"/>
<path d="M0 0 C0.33 0 0.66 0 1 0 C3.35201582 8.37905636 3.75687707 13.88514553 0 22 C-0.69140522 24.77888613 -0.69140522 24.77888613 -1 27 C-1.33 27 -1.66 27 -2 27 C-2.33 23.37 -2.66 19.74 -3 16 C-3.66 16 -4.32 16 -5 16 C-4.690625 15.4225 -4.38125 14.845 -4.0625 14.25 C-3.07416636 12.15705816 -2.4831387 10.25464725 -2 8 C-2.66 7.67 -3.32 7.34 -4 7 C-3.67 6.01 -3.34 5.02 -3 4 C-2.34 4 -1.68 4 -1 4 C-0.67 2.68 -0.34 1.36 0 0 Z " fill="#81834C" transform="translate(98,28)"/>
<path d="M0 0 C0.66 0 1.32 0 2 0 C2 9.9 2 19.8 2 30 C-1 27 -1 27 -1.35644531 24.28857422 C-1.34709961 23.2213916 -1.33775391 22.15420898 -1.328125 21.0546875 C-1.32296875 19.89582031 -1.3178125 18.73695312 -1.3125 17.54296875 C-1.291875 16.33253906 -1.27125 15.12210938 -1.25 13.875 C-1.24484375 12.65683594 -1.2396875 11.43867188 -1.234375 10.18359375 C-1.1538421 1.1538421 -1.1538421 1.1538421 0 0 Z " fill="#4A4039" transform="translate(46,19)"/>
<path d="M0 0 C4.95 0 9.9 0 15 0 C15 0.99 15 1.98 15 3 C14.34 3 13.68 3 13 3 C13.06908713 7.18148877 13.15715242 11.36202754 13.26245117 15.54272461 C13.29560557 16.96351202 13.32366692 18.38442813 13.34643555 19.80541992 C13.38015847 21.8539082 13.43247745 23.9012272 13.48828125 25.94921875 C13.51446533 27.17987061 13.54064941 28.41052246 13.56762695 29.6784668 C14.02519274 33.19353313 14.96084131 35.13948053 17 38 C15.125 37.6875 15.125 37.6875 13 37 C10.51636273 33.27454409 10.83661197 31.57229631 11.0234375 27.14453125 C11.04846344 26.48289474 11.07348938 25.82125824 11.09927368 25.13957214 C11.18133093 23.03001566 11.2779721 20.92141575 11.375 18.8125 C11.4332544 17.38089823 11.49055737 15.9492574 11.546875 14.51757812 C11.68688655 11.01119864 11.83998213 7.50552988 12 4 C9.56612247 2.78306124 7.58161154 2.68040104 4.875 2.4375 C3.96492188 2.35371094 3.05484375 2.26992188 2.1171875 2.18359375 C1.41851562 2.12300781 0.71984375 2.06242187 0 2 C0 1.34 0 0.68 0 0 Z " fill="#9E968C" transform="translate(36,15)"/>
<path d="M0 0 C0.99 0 1.98 0 3 0 C3.226875 1.03125 3.45375 2.0625 3.6875 3.125 C4.86471856 7.34408258 7.04838971 9.81536784 10 13 C9.67 13.66 9.34 14.32 9 15 C7 13 5 11 3 9 C0.77810176 11.22189824 0.07401108 13.08482708 -1 16 C-2.15941038 12.52176885 -1.70820884 10.54104422 -1 7 C-1.99 7.33 -2.98 7.66 -4 8 C-2.87548273 5.0280615 -1.77706209 2.66559313 0 0 Z " fill="#73724F" transform="translate(82,5)"/>
<path d="M0 0 C3.53469279 2.23863876 4.63253186 4.09294818 6 8 C6.99 9.485 6.99 9.485 8 11 C6 10 4 9 2 8 C2.5775 8.5775 3.155 9.155 3.75 9.75 C5.83333333 11.83333333 7.91666667 13.91666667 10 16 C8.68 15.67 7.36 15.34 6 15 C5.67 15.66 5.34 16.32 5 17 C4.34 17.33 3.68 17.66 3 18 C-0.30709012 11.79920603 0 6.85989302 0 0 Z " fill="#84874A" transform="translate(76,34)"/>
<path d="M0 0 C0.99 0.66 1.98 1.32 3 2 C3 2.99 3 3.98 3 5 C1.1746875 4.9690625 1.1746875 4.9690625 -0.6875 4.9375 C-3.23625418 4.92401453 -5.24532462 5.05575559 -7.75 5.625 C-10.50654601 6.08442433 -11.67612302 5.4631818 -14 4 C-14 3.34 -14 2.68 -14 2 C-9.16066459 0.41980885 -5.15943969 -0.39687998 0 0 Z " fill="#EDEBE9" transform="translate(106,16)"/>
<path d="M0 0 C0.2475 0.5775 0.495 1.155 0.75 1.75 C3.24004822 6.23208679 6.88379109 8.72219484 11.25 11.25 C12.14203125 11.77078125 13.0340625 12.2915625 13.953125 12.828125 C14.62859375 13.21484375 15.3040625 13.6015625 16 14 C15.01 14.66 14.02 15.32 13 16 C11.05916841 14.90169995 9.12244672 13.79613495 7.1875 12.6875 C6.10855469 12.07261719 5.02960937 11.45773438 3.91796875 10.82421875 C-0.34846979 8.15698073 -0.34846979 8.15698073 -2 6 C-1.57894737 1.57894737 -1.57894737 1.57894737 0 0 Z " fill="#978576" transform="translate(11,21)"/>
<path d="M0 0 C0.33 0.66 0.66 1.32 1 2 C-0.61594832 4.04119788 -2.2856382 6.04072937 -4 8 C-4.66 8 -5.32 8 -6 8 C-6.66 9.98 -7.32 11.96 -8 14 C-8.99 13.67 -9.98 13.34 -11 13 C-10.88027155 6.893849 -10.88027155 6.893849 -8.48046875 4.45703125 C-5.68982434 2.45364231 -3.27559039 1.09186346 0 0 Z " fill="#926547" transform="translate(134,2)"/>
<path d="M0 0 C0.33 0.99 0.66 1.98 1 3 C-1.93502642 6.47242562 -4.43684367 8.75827479 -9.03125 9.46875 C-17.17822967 9.54784689 -17.17822967 9.54784689 -21 7 C-20.32195313 6.99742188 -19.64390625 6.99484375 -18.9453125 6.9921875 C-11.21592689 6.67102189 -6.27010864 4.44756079 0 0 Z " fill="#1B1714" transform="translate(70,50)"/>
<path d="M0 0 C0.66 0 1.32 0 2 0 C2 4.95 2 9.9 2 15 C0.68 15 -0.64 15 -2 15 C-2.05386629 12.87527424 -2.09273071 10.75016348 -2.125 8.625 C-2.14820313 7.44164062 -2.17140625 6.25828125 -2.1953125 5.0390625 C-2 2 -2 2 0 0 Z " fill="#27201B" transform="translate(157,18)"/>
<path d="M0 0 C1.98 0.495 1.98 0.495 4 1 C4 4.96 4 8.92 4 13 C2.35 13 0.7 13 -1 13 C-0.67 8.71 -0.34 4.42 0 0 Z " fill="#9F9088" transform="translate(27,12)"/>
<path d="M0 0 C0.99 0 1.98 0 3 0 C3 5.61 3 11.22 3 17 C2.01 16.67 1.02 16.34 0 16 C0 10.72 0 5.44 0 0 Z " fill="#171717" transform="translate(155,37)"/>
<path d="M0 0 C2.56695636 0.39491636 4.67123994 0.83561997 7 2 C8.70363822 2.22622081 10.41328701 2.40888473 12.125 2.5625 C13.03507812 2.64628906 13.94515625 2.73007812 14.8828125 2.81640625 C15.58148437 2.87699219 16.28015625 2.93757813 17 3 C17 3.66 17 4.32 17 5 C11.22192976 5.2358396 6.48675196 4.86783046 1 3 C1 3.99 1 4.98 1 6 C0.34 6 -0.32 6 -1 6 C-1.042721 4.33388095 -1.04063832 2.66617115 -1 1 C-0.67 0.67 -0.34 0.34 0 0 Z " fill="#322B26" transform="translate(5,54)"/>
<path d="M0 0 C2.5919224 0.93597198 4.67775444 1.72298189 6.78125 3.53125 C9.65874568 5.43607108 11.82688848 5.50146133 15.25 5.6875 C16.32765625 5.75324219 17.4053125 5.81898437 18.515625 5.88671875 C19.33546875 5.92410156 20.1553125 5.96148437 21 6 C18.64979502 8.35020498 18.08090378 8.31914802 14.875 8.375 C10.01014598 8.26497099 5.87271747 7.00901789 2 4 C0.77734375 1.859375 0.77734375 1.859375 0 0 Z " fill="#C7B5A7" transform="translate(43,53)"/>
<path d="M0 0 C3.4785139 5.21777084 4.60667767 9.80517336 5 16 C4.0625 18.5 4.0625 18.5 3 20 C1.57773885 17.1554777 1.62238263 14.33587776 1.37890625 11.19140625 C1.1032176 8.71626355 1.1032176 8.71626355 -1 6 C-0.625 2.8125 -0.625 2.8125 0 0 Z " fill="#424229" transform="translate(82,14)"/>
<path d="M0 0 C3.125 1 3.125 1 5 2 C5 2.66 5 3.32 5 4 C3.88625 3.855625 2.7725 3.71125 1.625 3.5625 C-3.24126788 2.95203629 -8.11846586 2.47014775 -13 2 C-8.74959711 -0.83360193 -4.98846654 -0.41305774 0 0 Z " fill="#231A14" transform="translate(109,14)"/>
<path d="M0 0 C1.3609623 2.7219246 0.70366248 4.1831957 0.0625 7.125 C-0.13214844 8.03507812 -0.32679687 8.94515625 -0.52734375 9.8828125 C-0.68332031 10.58148438 -0.83929688 11.28015625 -1 12 C-1.33 12 -1.66 12 -2 12 C-2 9.69 -2 7.38 -2 5 C-5.63 5 -9.26 5 -13 5 C-13 4.34 -13 3.68 -13 3 C-9.04 3 -5.08 3 -1 3 C-0.67 2.01 -0.34 1.02 0 0 Z " fill="#423D2B" transform="translate(79,12)"/>
<path d="M0 0 C1.72880982 -0.05449838 3.45812712 -0.09301688 5.1875 -0.125 C6.15042969 -0.14820313 7.11335938 -0.17140625 8.10546875 -0.1953125 C11.12812778 0.0086456 13.26769985 0.73125368 16 2 C16 2.66 16 3.32 16 4 C15.030625 3.855625 14.06125 3.71125 13.0625 3.5625 C8.71947831 2.93952558 4.36234766 2.46492141 0 2 C0 1.34 0 0.68 0 0 Z " fill="#2F261F" transform="translate(10,14)"/>
<path d="M0 0 C0.33 0 0.66 0 1 0 C1.602537 6.98942918 1.602537 6.98942918 -0.11328125 9.8671875 C-1.33745588 11.30861002 -2.66278229 12.66278229 -4 14 C-4.99 13.01 -5.98 12.02 -7 11 C-6.21625 10.29875 -5.4325 9.5975 -4.625 8.875 C-1.91639182 5.90842914 -0.98277285 3.8417484 0 0 Z " fill="#251F1B" transform="translate(31,44)"/>
<path d="M0 0 C1.89575251 -0.02721176 3.79161979 -0.04649136 5.6875 -0.0625 C6.74324219 -0.07410156 7.79898437 -0.08570313 8.88671875 -0.09765625 C11.72410262 -0.00865425 14.2438919 0.35060162 17 1 C17 3.97 17 6.94 17 10 C15.68 9.34 14.36 8.68 13 8 C13 7.34 13 6.68 13 6 C13.99 6 14.98 6 16 6 C16 5.01 16 4.02 16 3 C10.72 2.34 5.44 1.68 0 1 C0 0.67 0 0.34 0 0 Z " fill="#EBDFD5" transform="translate(10,13)"/>
<path d="M0 0 C0.33 0 0.66 0 1 0 C1.36923077 7.50769231 1.36923077 7.50769231 -0.5 10 C-0.995 10.33 -1.49 10.66 -2 11 C-3.32 9.68 -4.64 8.36 -6 7 C-5.01 7 -4.02 7 -3 7 C-2.87625 6.21625 -2.7525 5.4325 -2.625 4.625 C-2 2 -2 2 0 0 Z " fill="#545532" transform="translate(86,30)"/>
<path d="M0 0 C0 0.66 0 1.32 0 2 C-4.95 2 -9.9 2 -15 2 C-15 1.34 -15 0.68 -15 0 C-13.25093341 -0.19601608 -11.50068154 -0.38147403 -9.75 -0.5625 C-8.77546875 -0.66691406 -7.8009375 -0.77132812 -6.796875 -0.87890625 C-4.2368648 -0.98974468 -2.41851841 -0.77738092 0 0 Z " fill="#322419" transform="translate(163,57)"/>
<path d="M0 0 C4.95 0 9.9 0 15 0 C15 0.66 15 1.32 15 2 C11.04 2 7.08 2 3 2 C2.67 2.66 2.34 3.32 2 4 C1.34 2.68 0.68 1.36 0 0 Z " fill="#D6C6BB" transform="translate(63,13)"/>
<path d="M0 0 C3 1 3 1 4.8125 2 C7.50409758 3.23044461 10.07983785 3.60179607 13 4 C13 4.33 13 4.66 13 5 C11.20841511 5.02696365 9.41671527 5.04637917 7.625 5.0625 C6.62726563 5.07410156 5.62953125 5.08570313 4.6015625 5.09765625 C2 5 2 5 0 4 C0 2.68 0 1.36 0 0 Z " fill="#DEDDDD" transform="translate(97,52)"/>
<path d="M0 0 C0.99 0 1.98 0 3 0 C3.31563182 5.26053037 2.66590937 8.44573816 0 13 C-0.99 11.68 -1.98 10.36 -3 9 C-2.34 8.67 -1.68 8.34 -1 8 C-1 7.34 -1 6.68 -1 6 C-0.34 6 0.32 6 1 6 C1.33 4.35 1.66 2.7 2 1 C1.34 0.67 0.68 0.34 0 0 Z " fill="#AA8C76" transform="translate(135,1)"/>
<path d="M0 0 C0.99 0 1.98 0 3 0 C3.433125 1.2065625 3.433125 1.2065625 3.875 2.4375 C4.73262568 5.1326468 4.73262568 5.1326468 7 6 C5.68 7.32 4.36 8.64 3 10 C2.01 6.7 1.02 3.4 0 0 Z " fill="#6D6F36" transform="translate(83,16)"/>
<path d="M0 0 C2 1.375 2 1.375 4 3 C4 3.66 4 4.32 4 5 C4.639375 5.2475 5.27875 5.495 5.9375 5.75 C8 7 8 7 8.75 9.125 C8.87375 10.053125 8.87375 10.053125 9 11 C8.01 11.495 8.01 11.495 7 12 C6.67 11.01 6.34 10.02 6 9 C5.319375 8.319375 4.63875 7.63875 3.9375 6.9375 C3.298125 6.298125 2.65875 5.65875 2 5 C2 4.34 2 3.68 2 3 C1.34 3 0.68 3 0 3 C0 2.01 0 1.02 0 0 Z " fill="#868A3D" transform="translate(84,13)"/>
<path d="M0 0 C2 2 2 2 2.25 5.3125 C2.01863452 8.72514084 1.4765288 10.95465935 0 14 C-0.33 14 -0.66 14 -1 14 C-0.67 9.38 -0.34 4.76 0 0 Z " fill="#A3A29A" transform="translate(99,34)"/>
<path d="M0 0 C3.68266103 0.59950296 7.34543185 1.24758891 11 2 C10.67 3.32 10.34 4.64 10 6 C6.40992874 4.66654496 3.20429093 3.1056769 0 1 C0 0.67 0 0.34 0 0 Z " fill="#7E7D67" transform="translate(80,52)"/>
<path d="M0 0 C1.64826111 2.96687001 2.44271087 5.65626525 3 9 C1.0625 8.3125 1.0625 8.3125 -1 7 C-1.875 4.5 -1.875 4.5 -2 2 C-1.34 1.34 -0.68 0.68 0 0 Z " fill="#665A4E" transform="translate(11,21)"/>
<path d="M0 0 C0.66 0 1.32 0 2 0 C2 2.97 2 5.94 2 9 C1.01 8.67 0.02 8.34 -1 8 C-1.125 2.25 -1.125 2.25 0 0 Z " fill="#30261F" transform="translate(116,14)"/>
<path d="M0 0 C1.32 0.33 2.64 0.66 4 1 C4.66 3.31 5.32 5.62 6 8 C3.5625 7.375 3.5625 7.375 1 6 C0.1875 2.875 0.1875 2.875 0 0 Z " fill="#7F7A61" transform="translate(92,20)"/>
<path d="M0 0 C3.63 0.66 7.26 1.32 11 2 C11 2.33 11 2.66 11 3 C7.7 3.33 4.4 3.66 1 4 C0.67 2.68 0.34 1.36 0 0 Z " fill="#515238" transform="translate(94,55)"/>
<path d="M0 0 C3.93673644 1.31224548 6.22719294 2.91910327 9 6 C3.50847458 5.38983051 3.50847458 5.38983051 1.125 3.5625 C0 2 0 2 0 0 Z " fill="#968272" transform="translate(43,53)"/>
<path d="M0 0 C0.33 0 0.66 0 1 0 C1 2.97 1 5.94 1 9 C-0.65 7.68 -2.3 6.36 -4 5 C-3.67 4.34 -3.34 3.68 -3 3 C-2.34 3 -1.68 3 -1 3 C-0.67 2.01 -0.34 1.02 0 0 Z " fill="#626334" transform="translate(83,23)"/>
<path d="M0 0 C1 2 1 2 0.875 5 C0.91625 5.99 0.9575 6.98 1 8 C1.99 8.66 2.98 9.32 4 10 C2.02 10.33 0.04 10.66 -2 11 C-1.85957123 9.35369672 -1.71250671 7.70795821 -1.5625 6.0625 C-1.48128906 5.14597656 -1.40007812 4.22945312 -1.31640625 3.28515625 C-1 1 -1 1 0 0 Z " fill="#B8AEA7" transform="translate(123,10)"/>
<path d="M0 0 C1.65 0.33 3.3 0.66 5 1 C5 1.66 5 2.32 5 3 C3.1875 4.6875 3.1875 4.6875 1 6 C0.01 5.67 -0.98 5.34 -2 5 C-1.34 3.35 -0.68 1.7 0 0 Z " fill="#8C6245" transform="translate(129,12)"/>
<path d="M0 0 C1.9451 2.91765 2.45276317 4.62537285 3 8 C1.68 7.67 0.36 7.34 -1 7 C-0.67 4.69 -0.34 2.38 0 0 Z " fill="#888C3D" transform="translate(77,25)"/>
<path d="M0 0 C2.31 0.66 4.62 1.32 7 2 C6.67 3.32 6.34 4.64 6 6 C5.67 5.01 5.34 4.02 5 3 C4.34 3 3.68 3 3 3 C2.67 3.66 2.34 4.32 2 5 C1.34 3.35 0.68 1.7 0 0 Z " fill="#5C5D30" transform="translate(89,48)"/>
<path d="M0 0 C0.66 0 1.32 0 2 0 C2.95465783 2.16967689 3.14401212 3.56328793 2.3984375 5.82421875 C1.64129615 7.5684743 0.82390802 9.28627131 0 11 C-1.35015859 6.94952424 -0.62084998 4.2079832 0 0 Z " fill="#B7A292" transform="translate(73,41)"/>
<path d="M0 0 C2.64 0 5.28 0 8 0 C6.515 1.98 6.515 1.98 5 4 C2.525 3.01 2.525 3.01 0 2 C0 1.34 0 0.68 0 0 Z " fill="#453930" transform="translate(135,15)"/>
<path d="M0 0 C1.32 0.33 2.64 0.66 4 1 C4 1.66 4 2.32 4 3 C0.04 3 -3.92 3 -8 3 C-8 2.67 -8 2.34 -8 2 C-5.36 1.67 -2.72 1.34 0 1 C0 0.67 0 0.34 0 0 Z " fill="#716A64" transform="translate(137,54)"/>
<path d="M0 0 C2.97 1.98 2.97 1.98 6 4 C5.01 4.495 5.01 4.495 4 5 C3.34 4.67 2.68 4.34 2 4 C1.67 4.66 1.34 5.32 1 6 C1 5.34 1 4.68 1 4 C0.34 4 -0.32 4 -1 4 C-0.67 2.68 -0.34 1.36 0 0 Z " fill="#787B38" transform="translate(80,45)"/>
<path d="M0 0 C0.99 0 1.98 0 3 0 C3.33 1.98 3.66 3.96 4 6 C2.68 6 1.36 6 0 6 C0 4.02 0 2.04 0 0 Z " fill="#6C6C35" transform="translate(92,44)"/>
<path d="M0 0 C0.66 0 1.32 0 2 0 C2 0.66 2 1.32 2 2 C3.32 2.33 4.64 2.66 6 3 C3.03 3.66 0.06 4.32 -3 5 C-1 1 -1 1 0 0 Z " fill="#A09185" transform="translate(8,14)"/>
<path d="M0 0 C0.763125 0.20625 1.52625 0.4125 2.3125 0.625 C2.3125 1.285 2.3125 1.945 2.3125 2.625 C-0.3275 2.295 -2.9675 1.965 -5.6875 1.625 C-2.6875 -0.375 -2.6875 -0.375 0 0 Z " fill="#393431" transform="translate(111.6875,15.375)"/>
<path d="M0 0 C0.99 0 1.98 0 3 0 C3.33 2.31 3.66 4.62 4 7 C3.01 6.67 2.02 6.34 1 6 C0.67 4.02 0.34 2.04 0 0 Z " fill="#A4A198" transform="translate(82,5)"/>
<path d="M0 0 C0.66 0 1.32 0 2 0 C1.67 1.65 1.34 3.3 1 5 C0.34 5 -0.32 5 -1 5 C-1 5.66 -1 6.32 -1 7 C-1.99 6.67 -2.98 6.34 -4 6 C-2.7260411 3.96166576 -1.38938077 1.96147874 0 0 Z " fill="#754729" transform="translate(135,2)"/>
<path d="M0 0 C0.66 0.66 1.32 1.32 2 2 C1.34 2 0.68 2 0 2 C0 1.34 0 0.68 0 0 Z " fill="#FFFFFF" transform="translate(52,17)"/>
<path d="M0 0 C2 1 2 1 2 1 Z " fill="#FFFFFF" transform="translate(115,61)"/>
<path d="M0 0 C2 1 2 1 2 1 Z " fill="#FFFFFF" transform="translate(7,61)"/>
<path d="M0 0 C2 1 2 1 2 1 Z " fill="#FFFFFF" transform="translate(80,55)"/>
<path d="M0 0 C2 1 2 1 2 1 Z " fill="#FFFFFF" transform="translate(109,23)"/>
<path d="M0 0 C2 1 2 1 2 1 Z " fill="#FFFFFF" transform="translate(124,5)"/>
<path d="" fill="#FFFFFF" transform="translate(0,0)"/>
<path d="" fill="#FFFFFF" transform="translate(0,0)"/>
<path d="" fill="#FFFFFF" transform="translate(0,0)"/>
<path d="" fill="#FFFFFF" transform="translate(0,0)"/>
<path d="" fill="#FFFFFF" transform="translate(0,0)"/>
<path d="" fill="#FFFFFF" transform="translate(0,0)"/>
<path d="" fill="#FFFFFF" transform="translate(0,0)"/>
<path d="" fill="#FFFFFF" transform="translate(0,0)"/>
<path d="" fill="#FFFFFF" transform="translate(0,0)"/>
<path d="" fill="#FFFFFF" transform="translate(0,0)"/>
<path d="" fill="#FFFFFF" transform="translate(0,0)"/>
<path d="" fill="#FFFFFF" transform="translate(0,0)"/>
<path d="" fill="#FFFFFF" transform="translate(0,0)"/>
<path d="" fill="#FFFFFF" transform="translate(0,0)"/>
<path d="" fill="#FFFFFF" transform="translate(0,0)"/>
<path d="" fill="#FFFFFF" transform="translate(0,0)"/>
<path d="" fill="#FFFFFF" transform="translate(0,0)"/>
<path d="" fill="#FFFFFF" transform="translate(0,0)"/>
<path d="" fill="#FFFFFF" transform="translate(0,0)"/>
<path d="" fill="#FFFFFF" transform="translate(0,0)"/>
<path d="" fill="#FFFFFF" transform="translate(0,0)"/>
<path d="" fill="#FFFFFF" transform="translate(0,0)"/>
<path d="" fill="#FFFFFF" transform="translate(0,0)"/>
<path d="" fill="#FFFFFF" transform="translate(0,0)"/>
<path d="" fill="#FFFFFF" transform="translate(0,0)"/>
<path d="" fill="#FFFFFF" transform="translate(0,0)"/>
<path d="" fill="#FFFFFF" transform="translate(0,0)"/>
<path d="" fill="#FFFFFF" transform="translate(0,0)"/>
<path d="" fill="#FFFFFF" transform="translate(0,0)"/>
<path d="" fill="#FFFFFF" transform="translate(0,0)"/>
<path d="" fill="#FFFFFF" transform="translate(0,0)"/>
<path d="" fill="#FFFFFF" transform="translate(0,0)"/>
<path d="" fill="#FFFFFF" transform="translate(0,0)"/>
<path d="" fill="#FFFFFF" transform="translate(0,0)"/>
<path d="" fill="#FFFFFF" transform="translate(0,0)"/>
<path d="" fill="#FFFFFF" transform="translate(0,0)"/>
<path d="" fill="#FFFFFF" transform="translate(0,0)"/>
<path d="" fill="#FFFFFF" transform="translate(0,0)"/>
<path d="" fill="#FFFFFF" transform="translate(0,0)"/>
<path d="" fill="#FFFFFF" transform="translate(0,0)"/>
<path d="" fill="#FFFFFF" transform="translate(0,0)"/>
<path d="" fill="#FFFFFF" transform="translate(0,0)"/>
<path d="" fill="#FFFFFF" transform="translate(0,0)"/>
<path d="" fill="#FFFFFF" transform="translate(0,0)"/>
<path d="" fill="#FFFFFF" transform="translate(0,0)"/>
<path d="" fill="#FFFFFF" transform="translate(0,0)"/>
<path d="" fill="#FFFFFF" transform="translate(0,0)"/>
<path d="" fill="#FFFFFF" transform="translate(0,0)"/>
<path d="" fill="#FFFFFF" transform="translate(0,0)"/>
<path d="" fill="#FFFFFF" transform="translate(0,0)"/>
<path d="" fill="#FFFFFF" transform="translate(0,0)"/>
<path d="" fill="#FFFFFF" transform="translate(0,0)"/>
<path d="" fill="#FFFFFF" transform="translate(0,0)"/>
<path d="" fill="#FFFFFF" transform="translate(0,0)"/>
<path d="" fill="#FFFFFF" transform="translate(0,0)"/>
<path d="" fill="#FFFFFF" transform="translate(0,0)"/>
<path d="" fill="#FFFFFF" transform="translate(0,0)"/>
<path d="" fill="#FFFFFF" transform="translate(0,0)"/>
<path d="" fill="#FFFFFF" transform="translate(0,0)"/>
<path d="" fill="#FFFFFF" transform="translate(0,0)"/>
<path d="" fill="#FFFFFF" transform="translate(0,0)"/>
<path d="" fill="#FFFFFF" transform="translate(0,0)"/>
<path d="" fill="#FFFFFF" transform="translate(0,0)"/>
<path d="" fill="#FFFFFF" transform="translate(0,0)"/>
<path d="" fill="#FFFFFF" transform="translate(0,0)"/>
<path d="" fill="#FFFFFF" transform="translate(0,0)"/>
<path d="" fill="#FFFFFF" transform="translate(0,0)"/>
<path d="" fill="#FFFFFF" transform="translate(0,0)"/>
<path d="" fill="#FFFFFF" transform="translate(0,0)"/>
<path d="" fill="#FFFFFF" transform="translate(0,0)"/>
<path d="" fill="#FFFFFF" transform="translate(0,0)"/>
<path d="" fill="#FFFFFF" transform="translate(0,0)"/>
<path d="" fill="#FFFFFF" transform="translate(0,0)"/>
<path d="" fill="#FFFFFF" transform="translate(0,0)"/>
<path d="" fill="#FFFFFF" transform="translate(0,0)"/>
<path d="" fill="#FFFFFF" transform="translate(0,0)"/>
<path d="" fill="#FFFFFF" transform="translate(0,0)"/>
<path d="" fill="#FFFFFF" transform="translate(0,0)"/>
<path d="" fill="#FFFFFF" transform="translate(0,0)"/>
<path d="" fill="#FFFFFF" transform="translate(0,0)"/>
<path d="" fill="#FFFFFF" transform="translate(0,0)"/>
<path d="" fill="#FFFFFF" transform="translate(0,0)"/>
<path d="" fill="#FFFFFF" transform="translate(0,0)"/>
<path d="" fill="#FFFFFF" transform="translate(0,0)"/>
<path d="" fill="#FFFFFF" transform="translate(0,0)"/>
<path d="" fill="#FFFFFF" transform="translate(0,0)"/>
<path d="" fill="#FFFFFF" transform="translate(0,0)"/>
<path d="" fill="#FFFFFF" transform="translate(0,0)"/>
<path d="" fill="#FFFFFF" transform="translate(0,0)"/>
<path d="" fill="#FFFFFF" transform="translate(0,0)"/>
<path d="" fill="#FFFFFF" transform="translate(0,0)"/>
<path d="" fill="#FFFFFF" transform="translate(0,0)"/>
<path d="" fill="#FFFFFF" transform="translate(0,0)"/>
<path d="" fill="#FFFFFF" transform="translate(0,0)"/>
<path d="" fill="#FFFFFF" transform="translate(0,0)"/>
<path d="" fill="#FFFFFF" transform="translate(0,0)"/>
<path d="" fill="#FFFFFF" transform="translate(0,0)"/>
<path d="" fill="#FFFFFF" transform="translate(0,0)"/>
<path d="" fill="#FFFFFF" transform="translate(0,0)"/>
<path d="" fill="#FFFFFF" transform="translate(0,0)"/>
<path d="" fill="#FFFFFF" transform="translate(0,0)"/>
<path d="" fill="#FFFFFF" transform="translate(0,0)"/>
<path d="" fill="#FFFFFF" transform="translate(0,0)"/>
<path d="" fill="#FFFFFF" transform="translate(0,0)"/>
<path d="" fill="#FFFFFF" transform="translate(0,0)"/>
<path d="" fill="#FFFFFF" transform="translate(0,0)"/>
<path d="" fill="#FFFFFF" transform="translate(0,0)"/>
<path d="" fill="#FFFFFF" transform="translate(0,0)"/>
<path d="" fill="#FFFFFF" transform="translate(0,0)"/>
<path d="" fill="#FFFFFF" transform="translate(0,0)"/>
<path d="" fill="#FFFFFF" transform="translate(0,0)"/>
<path d="" fill="#FFFFFF" transform="translate(0,0)"/>
<path d="" fill="#FFFFFF" transform="translate(0,0)"/>
<path d="" fill="#FFFFFF" transform="translate(0,0)"/>
<path d="" fill="#FFFFFF" transform="translate(0,0)"/>
<path d="" fill="#FFFFFF" transform="translate(0,0)"/>
<path d="" fill="#FFFFFF" transform="translate(0,0)"/>
<path d="" fill="#FFFFFF" transform="translate(0,0)"/>
<path d="" fill="#FFFFFF" transform="translate(0,0)"/>
<path d="" fill="#FFFFFF" transform="translate(0,0)"/>
<path d="" fill="#FFFFFF" transform="translate(0,0)"/>
<path d="" fill="#FFFFFF" transform="translate(0,0)"/>
<path d="" fill="#FFFFFF" transform="translate(0,0)"/>
<path d="" fill="#FFFFFF" transform="translate(0,0)"/>
<path d="" fill="#FFFFFF" transform="translate(0,0)"/>
<path d="" fill="#FFFFFF" transform="translate(0,0)"/>
<path d="" fill="#FFFFFF" transform="translate(0,0)"/>
<path d="" fill="#FFFFFF" transform="translate(0,0)"/>
<path d="" fill="#FFFFFF" transform="translate(0,0)"/>
<path d="" fill="#FFFFFF" transform="translate(0,0)"/>
<path d="" fill="#FFFFFF" transform="translate(0,0)"/>
<path d="" fill="#FFFFFF" transform="translate(0,0)"/>
<path d="" fill="#FFFFFF" transform="translate(0,0)"/>
<path d="" fill="#FFFFFF" transform="translate(0,0)"/>
<path d="" fill="#FFFFFF" transform="translate(0,0)"/>
<path d="" fill="#FFFFFF" transform="translate(0,0)"/>
<path d="" fill="#FFFFFF" transform="translate(0,0)"/>
<path d="" fill="#FFFFFF" transform="translate(0,0)"/>
<path d="" fill="#FFFFFF" transform="translate(0,0)"/>
<path d="" fill="#FFFFFF" transform="translate(0,0)"/>
<path d="" fill="#FFFFFF" transform="translate(0,0)"/>
<path d="" fill="#FFFFFF" transform="translate(0,0)"/>
<path d="" fill="#FFFFFF" transform="translate(0,0)"/>
<path d="" fill="#FFFFFF" transform="translate(0,0)"/>
<path d="" fill="#FFFFFF" transform="translate(0,0)"/>
<path d="" fill="#FFFFFF" transform="translate(0,0)"/>
<path d="" fill="#FFFFFF" transform="translate(0,0)"/>
<path d="" fill="#FFFFFF" transform="translate(0,0)"/>
</svg>
