<?xml version="1.0" encoding="UTF-8"?>
<svg version="1.1" xmlns="http://www.w3.org/2000/svg" width="200" height="56">
<path d="M0 0 C0.78683418 0.00699732 1.57366837 0.01399464 2.38434601 0.02120399 C3.73471199 0.02959549 3.73471199 0.02959549 5.11235809 0.03815651 C6.10772079 0.04953148 7.1030835 0.06090645 8.1286087 0.07262611 C9.17078049 0.08062737 10.21295227 0.08862862 11.28670502 0.09687233 C14.75034694 0.12487636 18.21386791 0.16030509 21.67743683 0.19616127 C24.07257574 0.21791391 26.46771741 0.23936412 28.86286163 0.26052284 C33.89012073 0.30609999 38.91732759 0.35533395 43.94452667 0.40709877 C50.40468921 0.4733292 56.86489424 0.53058961 63.32516479 0.58512878 C68.27323806 0.62787378 73.22125746 0.67532482 78.16927338 0.724226 C80.55202123 0.74720508 82.93478381 0.76870441 85.31755829 0.78873253 C88.64136274 0.81738201 91.96504094 0.85233745 95.28876495 0.88903236 C96.28412766 0.89635887 97.27949036 0.90368538 98.30501556 0.9112339 C99.20525955 0.92246788 100.10550354 0.93370186 101.03302765 0.94527626 C102.21327892 0.95690331 102.21327892 0.95690331 103.41737366 0.96876526 C105.20868683 1.11022377 105.20868683 1.11022377 106.20868683 2.11022377 C106.30719854 3.9413826 106.33841312 5.7764231 106.33368683 7.61022377 C106.33755402 9.11069252 106.33755402 9.11069252 106.34149933 10.64147377 C106.20868683 13.11022377 106.20868683 13.11022377 105.20868683 14.11022377 C103.83458906 14.20992261 102.45542733 14.24096952 101.07772064 14.24393654 C99.74214363 14.25033401 99.74214363 14.25033401 98.37958527 14.25686073 C97.39514435 14.25640755 96.41070343 14.25595436 95.39643097 14.25548744 C94.36561905 14.25884605 93.33480713 14.26220467 92.27275848 14.26566505 C88.84644128 14.27520708 85.42017276 14.27711978 81.99384308 14.27819252 C79.62351714 14.28140278 77.25319141 14.28476667 74.88286591 14.28827858 C69.90691417 14.29427795 64.93097982 14.29611765 59.95502472 14.2955265 C53.56436699 14.29542482 47.17382022 14.3090798 40.78318882 14.32629871 C35.88571913 14.33739178 30.98827649 14.33944655 26.09079552 14.33891678 C23.73397629 14.34010087 21.37715644 14.34454643 19.0203495 14.35224915 C15.7302653 14.36199506 12.44042496 14.35919244 9.15033722 14.35314369 C8.16792053 14.3587632 7.18550385 14.36438271 6.17331696 14.3701725 C5.28011246 14.36597801 4.38690796 14.36178352 3.46663666 14.35746193 C2.68809861 14.3580067 1.90956057 14.35855146 1.10743046 14.35911274 C-0.79131317 14.11022377 -0.79131317 14.11022377 -2.79131317 12.11022377 C-3.02178192 9.54381752 -3.02178192 9.54381752 -2.97881317 6.54772377 C-2.97236786 5.55643471 -2.96592255 4.56514565 -2.95928192 3.54381752 C-2.72626305 0.16775347 -2.72626305 0.16775347 0 0 Z " fill="#EAD559" transform="translate(49.79131317138672,37.8897762298584)"/>
<path d="M0 0 C0.77403168 0.00141495 1.54806335 0.0028299 2.34555054 0.00428772 C4.82155192 0.00989222 7.29746338 0.02244542 9.7734375 0.03515625 C11.45051953 0.04017067 13.12760297 0.04473368 14.8046875 0.04882812 C18.91930556 0.0598631 23.03385628 0.07713071 27.1484375 0.09765625 C27.8084375 1.41765625 28.4684375 2.73765625 29.1484375 4.09765625 C28.4884375 5.08765625 27.8284375 6.07765625 27.1484375 7.09765625 C27.00622685 9.70011123 26.96040818 12.18883309 27.0234375 14.78515625 C27.03246094 15.48705078 27.04148438 16.18894531 27.05078125 16.91210938 C27.07430046 18.6407715 27.11017037 20.3692577 27.1484375 22.09765625 C27.8084375 22.42765625 28.4684375 22.75765625 29.1484375 23.09765625 C28.6534375 25.57265625 28.6534375 25.57265625 28.1484375 28.09765625 C15.46572899 28.83902543 2.85272147 29.23574629 -9.8515625 29.09765625 C-10.1815625 27.77765625 -10.5115625 26.45765625 -10.8515625 25.09765625 C-9.5315625 24.43765625 -8.2115625 23.77765625 -6.8515625 23.09765625 C-7.1815625 17.48765625 -7.5115625 11.87765625 -7.8515625 6.09765625 C-8.5115625 5.76765625 -9.1715625 5.43765625 -9.8515625 5.09765625 C-9.8515625 3.77765625 -9.8515625 2.45765625 -9.8515625 1.09765625 C-6.73202122 -0.46211439 -3.42196866 -0.02338501 0 0 Z M6.1484375 6.09765625 C6.07518582 8.96033192 6.05605545 11.79837525 6.0859375 14.66015625 C6.09044922 15.46646484 6.09496094 16.27277344 6.09960938 17.10351562 C6.11143232 19.10159381 6.12936836 21.09963408 6.1484375 23.09765625 C7.1384375 23.42765625 8.1284375 23.75765625 9.1484375 24.09765625 C10.1384375 23.43765625 11.1284375 22.77765625 12.1484375 22.09765625 C12.3986532 19.01399754 12.3986532 19.01399754 12.1484375 16.09765625 C10.8284375 16.09765625 9.5084375 16.09765625 8.1484375 16.09765625 C8.1484375 14.77765625 8.1484375 13.45765625 8.1484375 12.09765625 C9.4684375 12.09765625 10.7884375 12.09765625 12.1484375 12.09765625 C12.1484375 9.78765625 12.1484375 7.47765625 12.1484375 5.09765625 C8.85913346 4.73079928 8.85913346 4.73079928 6.1484375 6.09765625 Z " fill="#DFD53F" transform="translate(157.8515625,6.90234375)"/>
<path d="M0 0 C1 1 1 1 1.0625 3.3984375 C1.02094265 5.37760646 0.97927656 7.35677315 0.9375 9.3359375 C0.87191426 12.10556013 0.87191426 12.10556013 2 15 C2.23828125 17.375 2.23828125 17.375 2.3125 20 C2.34988281 20.86625 2.38726562 21.7325 2.42578125 22.625 C2 25 2 25 0.203125 26.76953125 C-5.89827812 30.1772298 -14.22528261 29.11208172 -21 29 C-21 28.34 -21 27.68 -21 27 C-21.804375 27.185625 -22.60875 27.37125 -23.4375 27.5625 C-24.283125 27.706875 -25.12875 27.85125 -26 28 C-27 27 -27 27 -27.11352539 24.77514648 C-27.10828857 23.81680908 -27.10305176 22.85847168 -27.09765625 21.87109375 C-27.09443359 20.83662109 -27.09121094 19.80214844 -27.08789062 18.73632812 C-27.07951172 17.64771484 -27.07113281 16.55910156 -27.0625 15.4375 C-27.05798828 14.34501953 -27.05347656 13.25253906 -27.04882812 12.12695312 C-27.03699826 9.41791505 -27.02051543 6.70898401 -27 4 C-26.01 3.67 -25.02 3.34 -24 3 C-23.608125 2.505 -23.21625 2.01 -22.8125 1.5 C-17.23496817 -3.11588841 -6.6106741 -0.87365737 0 0 Z M-12 0 C-12.12375 0.804375 -12.2475 1.60875 -12.375 2.4375 C-12.58125 3.283125 -12.7875 4.12875 -13 5 C-13.99 5.495 -13.99 5.495 -15 6 C-14.34 6 -13.68 6 -13 6 C-12.67 6.66 -12.34 7.32 -12 8 C-11.01 7.01 -10.02 6.02 -9 5 C-9.66 5 -10.32 5 -11 5 C-11 3.35 -11 1.7 -11 0 C-11.33 0 -11.66 0 -12 0 Z M-8 6 C-8.99 6.495 -8.99 6.495 -10 7 C-10 7.66 -10 8.32 -10 9 C-9.01 8.67 -8.02 8.34 -7 8 C-7.33 7.34 -7.66 6.68 -8 6 Z M-6 7 C-6.33 7.99 -6.66 8.98 -7 10 C-6.01 9.67 -5.02 9.34 -4 9 C-4.66 8.34 -5.32 7.68 -6 7 Z M-19 19 C-19 19.66 -19 20.32 -19 21 C-18.38125 21.45375 -17.7625 21.9075 -17.125 22.375 C-14.86557722 24.10279389 -14.07249699 25.40813228 -13 28 C-12.26919734 26.02253397 -11.60578253 24.01927511 -11 22 C-11.33 21.34 -11.66 20.68 -12 20 C-13.32 20.33 -14.64 20.66 -16 21 C-16 20.34 -16 19.68 -16 19 C-16.99 19 -17.98 19 -19 19 Z M-11 21 C-10.34 21.66 -9.68 22.32 -9 23 C-9 22.34 -9 21.68 -9 21 C-9.66 21 -10.32 21 -11 21 Z " fill="#EAE450" transform="translate(44,7)"/>
<path d="M0 0 C0.125 4.75 0.125 4.75 -1 7 C-1.12393466 9.5132797 -1.18515112 11.98670114 -1.1875 14.5 C-1.19974609 15.18964844 -1.21199219 15.87929688 -1.22460938 16.58984375 C-1.22988695 18.39477494 -1.12184458 20.19917842 -1 22 C-0.34 22.66 0.32 23.32 1 24 C1.66 23.01 2.32 22.02 3 21 C1.33075929 17.95865509 1.33075929 17.95865509 -1 17 C-0.67 15.35 -0.34 13.7 0 12 C3.3 12 6.6 12 10 12 C9.67 10.68 9.34 9.36 9 8 C5.51202512 6.20728609 5.51202512 6.20728609 2 5 C2 3.35 2 1.7 2 0 C4.14576637 -0.02685938 6.29162645 -0.04633088 8.4375 -0.0625 C9.63246094 -0.07410156 10.82742187 -0.08570313 12.05859375 -0.09765625 C15 0 15 0 16 1 C16.07296482 3.71793945 15.99626869 6.42257315 15.9375 9.140625 C15.91640459 12.0080473 15.91640459 12.0080473 16.5625 14.796875 C16.706875 15.52390625 16.85125 16.2509375 17 17 C16.505 17.495 16.505 17.495 16 18 C15.76807135 19.51469448 15.58784762 21.03754562 15.4375 22.5625 C15.35371094 23.38878906 15.26992187 24.21507813 15.18359375 25.06640625 C15.09271484 26.02353516 15.09271484 26.02353516 15 27 C6.34250636 29.14521966 -3.70109611 31.16401143 -12 27 C-13.3125 24.875 -13.3125 24.875 -14 23 C-14.66 23 -15.32 23 -16 23 C-16.22262606 20.91814549 -16.42757926 18.83439574 -16.625 16.75 C-16.74101563 15.58984375 -16.85703125 14.4296875 -16.9765625 13.234375 C-17.00522185 9.27938477 -16.19003354 7.35231084 -13.625 4.4375 C-13.08875 3.963125 -12.5525 3.48875 -12 3 C-11.1646875 2.1646875 -11.1646875 2.1646875 -10.3125 1.3125 C-6.83407474 -0.66174136 -3.96266128 -0.19813306 0 0 Z " fill="#F3EE66" transform="translate(104,7)"/>
<path d="M0 0 C5.94 0 11.88 0 18 0 C19 5 19 5 18 7 C17.92883618 9.37402501 17.91590915 11.75000677 17.9375 14.125 C17.94652344 15.40632813 17.95554687 16.68765625 17.96484375 18.0078125 C17.97644531 18.99523437 17.98804687 19.98265625 18 21 C21.37817425 21.84454356 23.67465243 22.10844919 27 21 C27.1080023 18.89695523 27.18558987 16.79233091 27.25 14.6875 C27.31960937 12.92986328 27.31960937 12.92986328 27.390625 11.13671875 C27.32434604 7.90299431 27.32434604 7.90299431 24.984375 6.08203125 C24.32953125 5.72496094 23.6746875 5.36789063 23 5 C23.375 3.0625 23.375 3.0625 24 1 C26.40545638 -0.20272819 27.94996953 -0.10071472 30.625 -0.0625 C31.85089844 -0.04896484 31.85089844 -0.04896484 33.1015625 -0.03515625 C33.72804687 -0.02355469 34.35453125 -0.01195312 35 0 C35.495 2.475 35.495 2.475 36 5 C35.01 5.66 34.02 6.32 33 7 C32.49378487 9.02276681 32.49378487 9.02276681 32.48828125 11.3515625 C32.45283203 12.20234375 32.41738281 13.053125 32.38085938 13.9296875 C32.35830078 14.81914062 32.33574219 15.70859375 32.3125 16.625 C32.27833984 17.5221875 32.24417969 18.419375 32.20898438 19.34375 C32.12637598 21.56237538 32.05727281 23.7805994 32 26 C25.77303192 29.51075351 20.97346029 29.36558114 14 29 C12.78763672 28.95359375 12.78763672 28.95359375 11.55078125 28.90625 C8.65161579 28.69189396 6.55486675 28.48745303 4.328125 26.53125 C2.3262455 22.71590318 2.42873849 19.00100752 2.3125 14.75 C2.27833984 13.90953125 2.24417969 13.0690625 2.20898438 12.203125 C2.12676432 10.13587796 2.06169843 8.06796126 2 6 C1.34 6 0.68 6 0 6 C0 4.02 0 2.04 0 0 Z M20 24 C21 28 21 28 21 28 Z " fill="#F3E747" transform="translate(49,7)"/>
<path d="M0 0 C0.74886475 0.00523682 1.49772949 0.01047363 2.26928711 0.01586914 C3.07817383 0.0190918 3.88706055 0.02231445 4.72045898 0.02563477 C5.5705957 0.03401367 6.42073242 0.04239258 7.29663086 0.05102539 C8.15063477 0.05553711 9.00463867 0.06004883 9.88452148 0.06469727 C12.00108749 0.07652166 14.11761771 0.0944577 16.23413086 0.11352539 C15.35913086 4.98852539 15.35913086 4.98852539 14.23413086 6.11352539 C14.16093465 8.81007393 14.14170549 11.48043997 14.17163086 14.17602539 C14.17614258 14.93463867 14.1806543 15.69325195 14.18530273 16.47485352 C14.19712406 18.3544441 14.21506008 20.23399438 14.23413086 22.11352539 C14.89413086 22.44352539 15.55413086 22.77352539 16.23413086 23.11352539 C15.90413086 24.76352539 15.57413086 26.41352539 15.23413086 28.11352539 C9.29413086 28.11352539 3.35413086 28.11352539 -2.76586914 28.11352539 C-3.09586914 26.46352539 -3.42586914 24.81352539 -3.76586914 23.11352539 C-3.10586914 22.78352539 -2.44586914 22.45352539 -1.76586914 22.11352539 C-1.76586914 16.83352539 -1.76586914 11.55352539 -1.76586914 6.11352539 C-2.42586914 6.11352539 -3.08586914 6.11352539 -3.76586914 6.11352539 C-2.69972178 0.17356154 -2.69972178 0.17356154 0 0 Z " fill="#EEDD3C" transform="translate(127.765869140625,6.886474609375)"/>
<path d="M0 0 C-0.66 1.98 -1.32 3.96 -2 6 C-1.01 6.33 -0.02 6.66 1 7 C0.34 8.32 -0.32 9.64 -1 11 C-1.7425 10.46375 -2.485 9.9275 -3.25 9.375 C-4.1575 8.92125 -5.065 8.4675 -6 8 C-8.30287793 8.69140351 -8.30287793 8.69140351 -10 10 C-10 10.66 -10 11.32 -10 12 C-10.99 12.33 -11.98 12.66 -13 13 C-7.68376389 15.37482656 -2.3576845 17.72013426 3 20 C2.67 20.66 2.34 21.32 2 22 C-0.31 21.67 -2.62 21.34 -5 21 C-5 20.34 -5 19.68 -5 19 C-5.99 19 -6.98 19 -8 19 C-8 19.66 -8 20.32 -8 21 C-7.38125 21.268125 -6.7625 21.53625 -6.125 21.8125 C-4 23 -4 23 -2 26 C3.94074887 24.99667352 8.20186518 23.69087294 13 20 C13.25 22.3125 13.25 22.3125 13 25 C10.34660313 28.09562969 7.32479566 28.50911667 3.37109375 28.8828125 C-1.08594373 29.10309442 -5.53930626 29.07379824 -10 29 C-10 28.34 -10 27.68 -10 27 C-10.804375 27.185625 -11.60875 27.37125 -12.4375 27.5625 C-13.283125 27.706875 -14.12875 27.85125 -15 28 C-16 27 -16 27 -16.11352539 24.77514648 C-16.10828857 23.81680908 -16.10305176 22.85847168 -16.09765625 21.87109375 C-16.09443359 20.83662109 -16.09121094 19.80214844 -16.08789062 18.73632812 C-16.07951172 17.64771484 -16.07113281 16.55910156 -16.0625 15.4375 C-16.05798828 14.34501953 -16.05347656 13.25253906 -16.04882812 12.12695312 C-16.03699826 9.41791505 -16.02051543 6.70898401 -16 4 C-15.01 3.67 -14.02 3.34 -13 3 C-12.608125 2.505 -12.21625 2.01 -11.8125 1.5 C-8.67505665 -1.09650484 -3.68854933 -1.84427467 0 0 Z " fill="#DCB41A" transform="translate(33,7)"/>
<path d="M0 0 C1.37466431 0.07069702 1.37466431 0.07069702 2.77709961 0.14282227 C4.26113281 0.21533203 4.26113281 0.21533203 5.77514648 0.28930664 C7.33652344 0.37341797 7.33652344 0.37341797 8.92944336 0.45922852 C10.49662109 0.53753906 10.49662109 0.53753906 12.09545898 0.61743164 C14.68622572 0.74756148 17.27665002 0.8825401 19.86694336 1.02172852 C19.86694336 1.35172852 19.86694336 1.68172852 19.86694336 2.02172852 C18.16538086 2.23829102 18.16538086 2.23829102 16.42944336 2.45922852 C13.05917135 2.63344329 13.05917135 2.63344329 11.86694336 4.02172852 C11.63619254 5.36919936 11.45541273 6.72550417 11.30444336 8.08422852 C11.16006836 9.38360352 11.01569336 10.68297852 10.86694336 12.02172852 C11.52694336 12.02172852 12.18694336 12.02172852 12.86694336 12.02172852 C13.19694336 11.03172852 13.52694336 10.04172852 13.86694336 9.02172852 C14.19694336 10.01172852 14.52694336 11.00172852 14.86694336 12.02172852 C16.09833736 9.55894051 15.93853532 7.74222301 15.86694336 5.02172852 C16.52694336 4.69172852 17.18694336 4.36172852 17.86694336 4.02172852 C18.19694336 5.67172852 18.52694336 7.32172852 18.86694336 9.02172852 C19.52694336 9.02172852 20.18694336 9.02172852 20.86694336 9.02172852 C21.19694336 9.35172852 21.52694336 9.68172852 21.86694336 10.02172852 C22.19694336 8.37172852 22.52694336 6.72172852 22.86694336 5.02172852 C23.19694336 5.02172852 23.52694336 5.02172852 23.86694336 5.02172852 C24.19694336 7.00172852 24.52694336 8.98172852 24.86694336 11.02172852 C26.51694336 11.02172852 28.16694336 11.02172852 29.86694336 11.02172852 C30.19694336 9.37172852 30.52694336 7.72172852 30.86694336 6.02172852 C32.18694336 6.02172852 33.50694336 6.02172852 34.86694336 6.02172852 C34.86694336 5.36172852 34.86694336 4.70172852 34.86694336 4.02172852 C33.21694336 4.02172852 31.56694336 4.02172852 29.86694336 4.02172852 C29.86694336 3.36172852 29.86694336 2.70172852 29.86694336 2.02172852 C35.14694336 2.02172852 40.42694336 2.02172852 45.86694336 2.02172852 C45.86694336 3.01172852 45.86694336 4.00172852 45.86694336 5.02172852 C45.20694336 5.35172852 44.54694336 5.68172852 43.86694336 6.02172852 C43.86694336 5.36172852 43.86694336 4.70172852 43.86694336 4.02172852 C43.20694336 4.02172852 42.54694336 4.02172852 41.86694336 4.02172852 C41.86694336 5.67172852 41.86694336 7.32172852 41.86694336 9.02172852 C41.20694336 9.02172852 40.54694336 9.02172852 39.86694336 9.02172852 C39.86694336 8.36172852 39.86694336 7.70172852 39.86694336 7.02172852 C38.87694336 6.69172852 37.88694336 6.36172852 36.86694336 6.02172852 C38.18694336 6.02172852 39.50694336 6.02172852 40.86694336 6.02172852 C40.86694336 5.36172852 40.86694336 4.70172852 40.86694336 4.02172852 C39.54694336 4.35172852 38.22694336 4.68172852 36.86694336 5.02172852 C36.86694336 7.00172852 36.86694336 8.98172852 36.86694336 11.02172852 C38.18694336 11.68172852 39.50694336 12.34172852 40.86694336 13.02172852 C34.76139626 13.04637365 28.65587785 13.06456222 22.55029297 13.07666016 C20.4715118 13.0817014 18.3927342 13.08853426 16.31396484 13.09716797 C13.3329175 13.10924274 10.35191687 13.11495876 7.37084961 13.11938477 C5.96773277 13.12712669 5.96773277 13.12712669 4.53627014 13.13502502 C3.24504494 13.13513832 3.24504494 13.13513832 1.92773438 13.13525391 C1.16606461 13.13747452 0.40439484 13.13969513 -0.38035583 13.14198303 C-2.13305664 13.02172852 -2.13305664 13.02172852 -3.13305664 12.02172852 C-3.23156835 10.19056968 -3.26278293 8.35552918 -3.25805664 6.52172852 C-3.26063477 5.52141602 -3.26321289 4.52110352 -3.26586914 3.49047852 C-3.07977799 0.03137235 -3.07977799 0.03137235 0 0 Z " fill="#F7D445" transform="translate(50.133056640625,37.978271484375)"/>
<path d="M0 0 C2.83823106 2.83823106 1 7.98613514 1 12 C-19.79 12 -40.58 12 -62 12 C-61.34 10.68 -60.68 9.36 -60 8 C-59.67 8.99 -59.34 9.98 -59 11 C-52.89051241 10.95834684 -52.89051241 10.95834684 -47.9375 7.9375 C-47.628125 7.298125 -47.31875 6.65875 -47 6 C-47 7.32 -47 8.64 -47 10 C-44.36 9.67 -41.72 9.34 -39 9 C-38.67 7.35 -38.34 5.7 -38 4 C-37.67 4 -37.34 4 -37 4 C-37 6.31 -37 8.62 -37 11 C-35.02 11 -33.04 11 -31 11 C-31 8.69 -31 6.38 -31 4 C-30.67 4 -30.34 4 -30 4 C-29.505 6.97 -29.505 6.97 -29 10 C-28.34 10 -27.68 10 -27 10 C-26.67 8.02 -26.34 6.04 -26 4 C-25.67 4 -25.34 4 -25 4 C-24.34 5.98 -23.68 7.96 -23 10 C-22.01 10 -21.02 10 -20 10 C-19.34 7.03 -18.68 4.06 -18 1 C-16.68 1 -15.36 1 -14 1 C-14 1.66 -14 2.32 -14 3 C-14.99 3 -15.98 3 -17 3 C-16.505 5.475 -16.505 5.475 -16 8 C-15.01 7.67 -14.02 7.34 -13 7 C-13 5.02 -13 3.04 -13 1 C-8.58300512 -0.10424872 -4.52642225 -0.15088074 0 0 Z " fill="#EDD45F" transform="translate(155,39)"/>
<path d="M0 0 C0.33 0.99 0.66 1.98 1 3 C1.99 3.33 2.98 3.66 4 4 C4.33 9.94 4.66 15.88 5 22 C10.42452223 24.81528224 10.42452223 24.81528224 15.875 25.6875 C16.65617187 25.75324219 17.43734375 25.81898437 18.2421875 25.88671875 C18.82226562 25.92410156 19.40234375 25.96148437 20 26 C20.33 25.34 20.66 24.68 21 24 C20.01 24 19.02 24 18 24 C18.33 23.34 18.66 22.68 19 22 C19.763125 22.020625 20.52625 22.04125 21.3125 22.0625 C24.10185786 22.12942841 24.10185786 22.12942841 27 21 C27.1080023 18.89695523 27.18558987 16.79233091 27.25 14.6875 C27.31960937 12.92986328 27.31960937 12.92986328 27.390625 11.13671875 C27.32434604 7.90299431 27.32434604 7.90299431 24.984375 6.08203125 C24.32953125 5.72496094 23.6746875 5.36789063 23 5 C23.375 3.0625 23.375 3.0625 24 1 C26.40545638 -0.20272819 27.94996953 -0.10071472 30.625 -0.0625 C31.85089844 -0.04896484 31.85089844 -0.04896484 33.1015625 -0.03515625 C33.72804687 -0.02355469 34.35453125 -0.01195312 35 0 C35.495 2.475 35.495 2.475 36 5 C35.01 5.66 34.02 6.32 33 7 C32.49378487 9.02276681 32.49378487 9.02276681 32.48828125 11.3515625 C32.45283203 12.20234375 32.41738281 13.053125 32.38085938 13.9296875 C32.35830078 14.81914062 32.33574219 15.70859375 32.3125 16.625 C32.27833984 17.5221875 32.24417969 18.419375 32.20898438 19.34375 C32.12637598 21.56237538 32.05727281 23.7805994 32 26 C25.77303192 29.51075351 20.97346029 29.36558114 14 29 C12.78763672 28.95359375 12.78763672 28.95359375 11.55078125 28.90625 C8.65161579 28.69189396 6.55486675 28.48745303 4.328125 26.53125 C2.3262455 22.71590318 2.42873849 19.00100752 2.3125 14.75 C2.27833984 13.90953125 2.24417969 13.0690625 2.20898438 12.203125 C2.12676432 10.13587796 2.06169843 8.06796126 2 6 C1.34 6 0.68 6 0 6 C0 4.02 0 2.04 0 0 Z " fill="#E8D125" transform="translate(49,7)"/>
<path d="M0 0 C0.33 0.66 0.66 1.32 1 2 C3.42459787 2.83492354 3.42459787 2.83492354 6 3 C6.66 2.34 7.32 1.68 8 1 C8 7.6 8 14.2 8 21 C9.32 21 10.64 21 12 21 C11.67 21.99 11.34 22.98 11 24 C5.06 24 -0.88 24 -7 24 C-7 23.34 -7 22.68 -7 22 C-6.34 21.67 -5.68 21.34 -5 21 C-4.53348793 18.87423218 -4.53348793 18.87423218 -4.375 16.4375 C-4.30023438 15.61121094 -4.22546875 14.78492188 -4.1484375 13.93359375 C-4.09945312 13.29550781 -4.05046875 12.65742188 -4 12 C-3.67 12.66 -3.34 13.32 -3 14 C-2.40929986 12.05396726 -2.40929986 12.05396726 -2 10 C-2.33 9.67 -2.66 9.34 -3 9 C-3.14115161 6.32941149 -3.04247107 3.67567762 -3 1 C-2.01 0.67 -1.02 0.34 0 0 Z " fill="#E9CE31" transform="translate(175,9)"/>
<path d="M0 0 C3.125 1.125 3.125 1.125 4.40625 3.19921875 C5.41041628 5.48369703 6.31460494 7.76532028 7.125 10.125 C6.135 10.125 5.145 10.125 4.125 10.125 C4.46727572 13.09565509 4.46727572 13.09565509 5.125 16.125 C5.785 16.455 6.445 16.785 7.125 17.125 C6.465 18.115 5.805 19.105 5.125 20.125 C2.0859375 20.41796875 2.0859375 20.41796875 -1.5 20.3125 C-2.68851563 20.28542969 -3.87703125 20.25835937 -5.1015625 20.23046875 C-6.01679688 20.19566406 -6.93203125 20.16085938 -7.875 20.125 C-7.545 19.465 -7.215 18.805 -6.875 18.125 C-6.215 18.125 -5.555 18.125 -4.875 18.125 C-4.875 12.515 -4.875 6.905 -4.875 1.125 C-2.875 0.125 -2.875 0.125 0 0 Z " fill="#F5ED4C" transform="translate(155.875,11.875)"/>
<path d="M0 0 C2.14576637 -0.02685938 4.29162645 -0.04633088 6.4375 -0.0625 C7.63246094 -0.07410156 8.82742187 -0.08570313 10.05859375 -0.09765625 C13 0 13 0 14 1 C14.07296482 3.71793945 13.99626869 6.42257315 13.9375 9.140625 C13.99758914 11.88970336 14.37594876 14.32828064 15 17 C14.34 17.33 13.68 17.66 13 18 C13 17.01 13 16.02 13 15 C11.02 15 9.04 15 7 15 C6.67 15.99 6.34 16.98 6 18 C6 17.01 6 16.02 6 15 C4.01508358 15.26676204 4.01508358 15.26676204 2 16 C1.67 16.99 1.34 17.98 1 19 C-0.32 18.34 -1.64 17.68 -3 17 C-2.67 15.35 -2.34 13.7 -2 12 C1.3 12 4.6 12 8 12 C7.67 10.68 7.34 9.36 7 8 C3.51202512 6.20728609 3.51202512 6.20728609 0 5 C0 3.35 0 1.7 0 0 Z " fill="#ECE656" transform="translate(106,7)"/>
<path d="M0 0 C0.9796875 0.00322266 1.959375 0.00644531 2.96875 0.00976562 C3.98453125 0.01814453 5.0003125 0.02652344 6.046875 0.03515625 C7.59375 0.04192383 7.59375 0.04192383 9.171875 0.04882812 C11.71360073 0.06059537 14.25520819 0.07703614 16.796875 0.09765625 C16.796875 0.42765625 16.796875 0.75765625 16.796875 1.09765625 C15.146875 1.09765625 13.496875 1.09765625 11.796875 1.09765625 C12.003125 2.02578125 12.209375 2.95390625 12.421875 3.91015625 C12.796875 7.09765625 12.796875 7.09765625 10.796875 10.09765625 C10.796875 9.43765625 10.796875 8.77765625 10.796875 8.09765625 C10.136875 8.09765625 9.476875 8.09765625 8.796875 8.09765625 C8.466875 9.08765625 8.136875 10.07765625 7.796875 11.09765625 C7.796875 8.45765625 7.796875 5.81765625 7.796875 3.09765625 C8.786875 3.09765625 9.776875 3.09765625 10.796875 3.09765625 C10.796875 2.43765625 10.796875 1.77765625 10.796875 1.09765625 C9.476875 1.09765625 8.156875 1.09765625 6.796875 1.09765625 C6.466875 4.06765625 6.136875 7.03765625 5.796875 10.09765625 C4.476875 10.42765625 3.156875 10.75765625 1.796875 11.09765625 C1.136875 10.43765625 0.476875 9.77765625 -0.203125 9.09765625 C-2.183125 10.08765625 -2.183125 10.08765625 -4.203125 11.09765625 C-5.203125 10.09765625 -5.203125 10.09765625 -5.265625 7.03515625 C-5.245 6.06578125 -5.224375 5.09640625 -5.203125 4.09765625 C-5.863125 4.09765625 -6.523125 4.09765625 -7.203125 4.09765625 C-7.533125 5.41765625 -7.863125 6.73765625 -8.203125 8.09765625 C-9.265625 5.72265625 -9.265625 5.72265625 -10.203125 3.09765625 C-9.203125 1.09765625 -9.203125 1.09765625 -7.46582031 0.47875977 C-4.93450869 0.05241347 -2.56728286 -0.01492606 0 0 Z " fill="#EDD55D" transform="translate(130.203125,38.90234375)"/>
<path d="M0 0 C0.33 0 0.66 0 1 0 C1 7.26 1 14.52 1 22 C-2.63 22 -6.26 22 -10 22 C-11.17426264 19.65147472 -11.11508173 18.26225935 -11.09765625 15.6484375 C-11.09443359 14.79765625 -11.09121094 13.946875 -11.08789062 13.0703125 C-11.07951172 12.18085938 -11.07113281 11.29140625 -11.0625 10.375 C-11.05798828 9.4778125 -11.05347656 8.580625 -11.04882812 7.65625 C-11.03702591 5.43743352 -11.02056155 3.21874982 -11 1 C-10.67 1 -10.34 1 -10 1 C-9.67 3.97 -9.34 6.94 -9 10 C-7.35 9.67 -5.7 9.34 -4 9 C-4 8.34 -4 7.68 -4 7 C-2.68 6.67 -1.36 6.34 0 6 C0 4.02 0 2.04 0 0 Z " fill="#F8F25B" transform="translate(139,10)"/>
<path d="M0 0 C6.27 0 12.54 0 19 0 C19.66 1.32 20.32 2.64 21 4 C20.01 5.485 20.01 5.485 19 7 C18.85754103 9.76655324 18.81230555 12.42653306 18.875 15.1875 C18.88402344 15.93708984 18.89304688 16.68667969 18.90234375 17.45898438 C18.92587422 19.30612654 18.96174439 21.15310412 19 23 C18.34 23 17.68 23 17 23 C16.92652344 21.30230469 16.92652344 21.30230469 16.8515625 19.5703125 C16.77653486 18.08851661 16.70098703 16.606747 16.625 15.125 C16.5940625 14.37863281 16.563125 13.63226563 16.53125 12.86328125 C16.44356169 8.46526812 16.44356169 8.46526812 14 5 C11.54295238 3.76709799 11.54295238 3.76709799 9 3 C8.01 3.495 8.01 3.495 7 4 C6.91840426 8.16138263 7.01751476 11.9472484 8 16 C7.34 16 6.68 16 6 16 C5.9175 17.11375 5.835 18.2275 5.75 19.375 C5 23 5 23 2.9375 24.4375 C2.298125 24.623125 1.65875 24.80875 1 25 C1 24.34 1 23.68 1 23 C1.66 22.67 2.32 22.34 3 22 C3.65772428 18.97065509 3.65772428 18.97065509 4 16 C2.68 16 1.36 16 0 16 C-0.33 14.35 -0.66 12.7 -1 11 C0.65 11.33 2.3 11.66 4 12 C4 9.69 4 7.38 4 5 C2.02 5.33 0.04 5.66 -2 6 C-2 5.01 -2 4.02 -2 3 C-1.01 3 -0.02 3 1 3 C0.67 2.01 0.34 1.02 0 0 Z " fill="#CD8D0F" transform="translate(166,7)"/>
<path d="M0 0 C1.32 0 2.64 0 4 0 C3.67 1.65 3.34 3.3 3 5 C3.66 5 4.32 5 5 5 C5.33 3.68 5.66 2.36 6 1 C6.99 1.99 7.98 2.98 9 4 C8.34 5.32 7.68 6.64 7 8 C37.195 8.495 37.195 8.495 68 9 C68 9.33 68 9.66 68 10 C33.02 10 -1.96 10 -38 10 C-38 9.67 -38 9.34 -38 9 C-25.46 8.67 -12.92 8.34 0 8 C-0.495 7.505 -0.495 7.505 -1 7 C-1.125 4 -1.125 4 -1 1 C-0.67 0.67 -0.34 0.34 0 0 Z " fill="#9E8B45" transform="translate(87,42)"/>
<path d="M0 0 C5.28 0 10.56 0 16 0 C16 0.99 16 1.98 16 3 C15.34 3.33 14.68 3.66 14 4 C14 3.34 14 2.68 14 2 C13.34 2 12.68 2 12 2 C12 3.65 12 5.3 12 7 C11.34 7 10.68 7 10 7 C10 6.34 10 5.68 10 5 C9.01 4.67 8.02 4.34 7 4 C8.32 4 9.64 4 11 4 C11 3.34 11 2.68 11 2 C9.68 2.33 8.36 2.66 7 3 C7 4.98 7 6.96 7 9 C8.32 9.66 9.64 10.32 11 11 C1.1 11 -8.8 11 -19 11 C-18.34 10.67 -17.68 10.34 -17 10 C-16.67 9.01 -16.34 8.02 -16 7 C-15.67 7.99 -15.34 8.98 -15 10 C-13.768606 7.53721199 -13.92840804 5.7204945 -14 3 C-13.34 2.67 -12.68 2.34 -12 2 C-11.67 3.65 -11.34 5.3 -11 7 C-10.34 7 -9.68 7 -9 7 C-8.67 7.33 -8.34 7.66 -8 8 C-7.67 6.35 -7.34 4.7 -7 3 C-6.67 3 -6.34 3 -6 3 C-5.67 4.98 -5.34 6.96 -5 9 C-3.35 9 -1.7 9 0 9 C0.33 7.35 0.66 5.7 1 4 C2.32 4 3.64 4 5 4 C5 3.34 5 2.68 5 2 C3.35 2 1.7 2 0 2 C0 1.34 0 0.68 0 0 Z " fill="#FBFA91" transform="translate(80,40)"/>
<path d="M0 0 C1.32 0 2.64 0 4 0 C4 0.66 4 1.32 4 2 C3.01 2 2.02 2 1 2 C1.495 4.475 1.495 4.475 2 7 C2.66 7 3.32 7 4 7 C4.66 7.66 5.32 8.32 6 9 C7.32 9.66 8.64 10.32 10 11 C-7.82 11 -25.64 11 -44 11 C-43.34 9.68 -42.68 8.36 -42 7 C-41.67 7.99 -41.34 8.98 -41 10 C-34.89051241 9.95834684 -34.89051241 9.95834684 -29.9375 6.9375 C-29.628125 6.298125 -29.31875 5.65875 -29 5 C-29 6.32 -29 7.64 -29 9 C-26.36 8.67 -23.72 8.34 -21 8 C-20.67 6.35 -20.34 4.7 -20 3 C-19.67 3 -19.34 3 -19 3 C-19 5.31 -19 7.62 -19 10 C-17.02 10 -15.04 10 -13 10 C-13 7.69 -13 5.38 -13 3 C-12.67 3 -12.34 3 -12 3 C-11.505 5.97 -11.505 5.97 -11 9 C-10.34 9 -9.68 9 -9 9 C-8.67 7.02 -8.34 5.04 -8 3 C-7.67 3 -7.34 3 -7 3 C-6.34 4.98 -5.68 6.96 -5 9 C-4.01 9 -3.02 9 -2 9 C-1.34 6.03 -0.68 3.06 0 0 Z " fill="#FAF78B" transform="translate(137,40)"/>
<path d="M0 0 C0.625 1.875 0.625 1.875 1 4 C0.34 4.66 -0.32 5.32 -1 6 C-1.14507695 8.74485593 -1.18652423 11.38480543 -1.125 14.125 C-1.11597656 14.87910156 -1.10695312 15.63320313 -1.09765625 16.41015625 C-1.0740687 18.27357254 -1.03819719 20.13682593 -1 22 C-0.34 22.33 0.32 22.66 1 23 C0.67 24.65 0.34 26.3 0 28 C-5.94 28 -11.88 28 -18 28 C-18.33 26.35 -18.66 24.7 -19 23 C-18.34 22.67 -17.68 22.34 -17 22 C-17 16.72 -17 11.44 -17 6 C-17.66 6 -18.32 6 -19 6 C-18.67 4.68 -18.34 3.36 -18 2 C-17.01 2.33 -16.02 2.66 -15 3 C-14.67 10.26 -14.34 17.52 -14 25 C-10.37 25 -6.74 25 -3 25 C-3 17.74 -3 10.48 -3 3 C-2.01 3 -1.02 3 0 3 C0 2.01 0 1.02 0 0 Z " fill="#59551D" transform="translate(143,7)"/>
<path d="M0 0 C0.33 0.99 0.66 1.98 1 3 C1.99 3.33 2.98 3.66 4 4 C4.33 9.94 4.66 15.88 5 22 C10.42452223 24.81528224 10.42452223 24.81528224 15.875 25.6875 C16.65617187 25.75324219 17.43734375 25.81898437 18.2421875 25.88671875 C18.82226562 25.92410156 19.40234375 25.96148437 20 26 C20.33 25.34 20.66 24.68 21 24 C20.01 24 19.02 24 18 24 C18.33 23.34 18.66 22.68 19 22 C20.65 22 22.3 22 24 22 C23.67 22.99 23.34 23.98 23 25 C26.77545388 23.90931332 29.47043472 23.0916909 32 20 C32 21.98 32 23.96 32 26 C26.25897203 29.82735198 20.71633122 29.35210124 14 29 C12.78763672 28.95359375 12.78763672 28.95359375 11.55078125 28.90625 C8.65161579 28.69189396 6.55486675 28.48745303 4.328125 26.53125 C2.3262455 22.71590318 2.42873849 19.00100752 2.3125 14.75 C2.27833984 13.90953125 2.24417969 13.0690625 2.20898438 12.203125 C2.12676432 10.13587796 2.06169843 8.06796126 2 6 C1.34 6 0.68 6 0 6 C0 4.02 0 2.04 0 0 Z " fill="#141409" transform="translate(49,7)"/>
<path d="M0 0 C0.33 0.66 0.66 1.32 1 2 C1.66 2 2.32 2 3 2 C3 2.66 3 3.32 3 4 C6.02419525 3.41196203 9.01758453 2.77321882 12 2 C12.103125 3.11375 12.20625 4.2275 12.3125 5.375 C12.6528125 7.169375 12.6528125 7.169375 13 9 C13.99 9.66 14.98 10.32 16 11 C16 11.66 16 12.32 16 13 C10.17278563 13.34963286 6.11423609 13.19639756 1 10 C0 9 0 9 -0.09765625 6.93359375 C-0.08605469 6.10988281 -0.07445312 5.28617188 -0.0625 4.4375 C-0.05347656 3.61121094 -0.04445312 2.78492188 -0.03515625 1.93359375 C-0.02355469 1.29550781 -0.01195312 0.65742188 0 0 Z " fill="#F3EF64" transform="translate(53,20)"/>
<path d="M0 0 C1.3921875 0.61875 1.3921875 0.61875 2.8125 1.25 C4.96884036 1.25 6.73696352 0.8034764 8.8125 0.25 C9.1425 2.23 9.4725 4.21 9.8125 6.25 C8.8225 6.91 7.8325 7.57 6.8125 8.25 C6.8125 7.59 6.8125 6.93 6.8125 6.25 C5.8225 6.25 4.8325 6.25 3.8125 6.25 C4.1425 7.24 4.4725 8.23 4.8125 9.25 C2.26105176 10.18045933 1.07243522 10.33564091 -1.546875 9.47265625 C-2.33578125 9.08980469 -3.1246875 8.70695312 -3.9375 8.3125 C-4.73671875 7.93222656 -5.5359375 7.55195313 -6.359375 7.16015625 C-6.96265625 6.85980469 -7.5659375 6.55945313 -8.1875 6.25 C-8.1875 3.25 -8.1875 3.25 -6.0625 0.9375 C-3.1875 -0.75 -3.1875 -0.75 0 0 Z " fill="#ECD935" transform="translate(28.1875,14.75)"/>
<path d="M0 0 C1.22589844 0.01353516 1.22589844 0.01353516 2.4765625 0.02734375 C3.41628906 0.04474609 3.41628906 0.04474609 4.375 0.0625 C4.375 2.7025 4.375 5.3425 4.375 8.0625 C-4.05357143 11.49107143 -4.05357143 11.49107143 -8.625 11.0625 C-8.16677532 7.59308454 -7.73368317 4.38854951 -6.625 1.0625 C-4.21954362 -0.14022819 -2.67503047 -0.03821472 0 0 Z " fill="#F2EE63" transform="translate(114.625,21.9375)"/>
<path d="M0 0 C1.81242052 -0.02687279 3.62495233 -0.04633715 5.4375 -0.0625 C6.44683594 -0.07410156 7.45617188 -0.08570313 8.49609375 -0.09765625 C11 0 11 0 12 1 C12.07205511 2.68608966 12.08386068 4.37500659 12.0625 6.0625 C12.05347656 6.98160156 12.04445313 7.90070312 12.03515625 8.84765625 C12.02355469 9.55792969 12.01195312 10.26820312 12 11 C10.68 11 9.36 11 8 11 C7.34 10.34 6.68 9.68 6 9 C3.22739701 7.06201737 3.22739701 7.06201737 1 6 C0 5 0 5 -0.0625 2.4375 C-0.041875 1.633125 -0.02125 0.82875 0 0 Z " fill="#DDBF1E" transform="translate(33,7)"/>
<path d="M0 0 C3.1875 1.125 3.1875 1.125 4.47265625 3.19921875 C5.47339391 5.48405707 6.37743259 7.76627431 7.1875 10.125 C6.1975 10.125 5.2075 10.125 4.1875 10.125 C4.1875 11.775 4.1875 13.425 4.1875 15.125 C3.1975 15.125 2.2075 15.125 1.1875 15.125 C-0.36045146 12.80307281 -1.57369454 10.60261092 -2.8125 8.125 C-3.1425 7.795 -3.4725 7.465 -3.8125 7.125 C-3.9375 4.125 -3.9375 4.125 -3.8125 1.125 C-2.8125 0.125 -2.8125 0.125 0 0 Z " fill="#ECDC3C" transform="translate(155.8125,11.875)"/>
<path d="M0 0 C0.99773437 0.02320313 1.99546875 0.04640625 3.0234375 0.0703125 C4.52777344 0.09738281 4.52777344 0.09738281 6.0625 0.125 C6.83335938 0.14820313 7.60421875 0.17140625 8.3984375 0.1953125 C8.0684375 3.4953125 7.7384375 6.7953125 7.3984375 10.1953125 C6.7384375 9.8653125 6.0784375 9.5353125 5.3984375 9.1953125 C5.3984375 8.5353125 5.3984375 7.8753125 5.3984375 7.1953125 C4.7384375 7.1953125 4.0784375 7.1953125 3.3984375 7.1953125 C3.0684375 8.1853125 2.7384375 9.1753125 2.3984375 10.1953125 C2.0684375 8.2153125 1.7384375 6.2353125 1.3984375 4.1953125 C1.3984375 6.1753125 1.3984375 8.1553125 1.3984375 10.1953125 C0.7384375 10.1953125 0.0784375 10.1953125 -0.6015625 10.1953125 C-0.9315625 9.5353125 -1.2615625 8.8753125 -1.6015625 8.1953125 C-1.9315625 8.8553125 -2.2615625 9.5153125 -2.6015625 10.1953125 C-3.2615625 10.1953125 -3.9215625 10.1953125 -4.6015625 10.1953125 C-4.796875 4.140625 -4.796875 4.140625 -4.6015625 2.1953125 C-2.6015625 0.1953125 -2.6015625 0.1953125 0 0 Z " fill="#A4953F" transform="translate(65.6015625,39.8046875)"/>
<path d="M0 0 C1.051875 1.1446875 1.051875 1.1446875 2.125 2.3125 C6.14483985 6.07017638 10.43688777 8.53640731 16 9 C16.66 8.34 17.32 7.68 18 7 C18 7.66 18 8.32 18 9 C22.29 8.01 26.58 7.02 31 6 C31 7.32 31 8.64 31 10 C22.34250636 12.14521966 12.29890389 14.16401143 4 10 C2.6875 7.875 2.6875 7.875 2 6 C1.34 6 0.68 6 0 6 C0 4.02 0 2.04 0 0 Z " fill="#0D0C05" transform="translate(88,24)"/>
<path d="M0 0 C19.8 0.495 19.8 0.495 40 1 C39.67 1.66 39.34 2.32 39 3 C26.31729149 3.74136918 13.70428397 4.13809004 1 4 C0.67 2.68 0.34 1.36 0 0 Z " fill="#010100" transform="translate(147,32)"/>
<path d="M0 0 C2 3 2 3 2 5 C2.66 5 3.32 5 4 5 C5.125 9.75 5.125 9.75 4 12 C0.37 12 -3.26 12 -7 12 C-6.34 11.34 -5.68 10.68 -5 10 C-4.53993654 7.79749008 -4.53993654 7.79749008 -4.375 5.375 C-4.30023438 4.55773437 -4.22546875 3.74046875 -4.1484375 2.8984375 C-4.09945312 2.27195312 -4.05046875 1.64546875 -4 1 C-3.67 1.66 -3.34 2.32 -3 3 C-2.01 2.01 -1.02 1.02 0 0 Z " fill="#F5EC4D" transform="translate(175,20)"/>
<path d="M0 0 C1 3 1 3 0.4375 5.0625 C-1.64835634 7.87387158 -3.63443959 8.12286772 -7 9 C-9.66787642 9.13474123 -12.21646441 9.19197861 -14.875 9.125 C-15.56335937 9.11597656 -16.25171875 9.10695313 -16.9609375 9.09765625 C-18.64077838 9.07432513 -20.32043746 9.03846326 -22 9 C-22 8.34 -22 7.68 -22 7 C-23.65 7.33 -25.3 7.66 -27 8 C-27 7.01 -27 6.02 -27 5 C-23.58689572 4.93173791 -20.47050921 4.89771539 -17.125 5.625 C-11.44049677 6.30714039 -6.630367 5.13127506 -1.9375 1.875 C-1.298125 1.25625 -0.65875 0.6375 0 0 Z " fill="#070702" transform="translate(45,27)"/>
<path d="M0 0 C4.6835443 3.67088608 4.6835443 3.67088608 6.5625 5.625 C7.98287659 7.12939235 7.98287659 7.12939235 10.125 8 C12 9 12 9 13 12 C11.02090602 12.02686553 9.04171029 12.04633375 7.0625 12.0625 C5.96035156 12.07410156 4.85820312 12.08570313 3.72265625 12.09765625 C1 12 1 12 0 11 C-0.07226502 9.14712498 -0.0838122 7.29166122 -0.0625 5.4375 C-0.05347656 4.42558594 -0.04445313 3.41367187 -0.03515625 2.37109375 C-0.02355469 1.58863281 -0.01195313 0.80617188 0 0 Z " fill="#EDE040" transform="translate(17,21)"/>
<path d="M0 0 C2.14576637 -0.02685938 4.29162645 -0.04633088 6.4375 -0.0625 C7.63246094 -0.07410156 8.82742187 -0.08570313 10.05859375 -0.09765625 C13 0 13 0 14 1 C14.07179964 2.51928038 14.08392007 4.04167482 14.0625 5.5625 C14.05347656 6.38878906 14.04445313 7.21507812 14.03515625 8.06640625 C14.02355469 8.70449219 14.01195313 9.34257812 14 10 C12.68 10 11.36 10 10 10 C9.835 9.21625 9.67 8.4325 9.5 7.625 C8.29603101 4.8906529 8.29603101 4.8906529 6.0859375 4.22265625 C4.07483301 3.73586948 2.037362 3.36146745 0 3 C0 2.01 0 1.02 0 0 Z " fill="#C1B124" transform="translate(106,7)"/>
<path d="M0 0 C1.32 0 2.64 0 4 0 C4 0.66 4 1.32 4 2 C5.65 2 7.3 2 9 2 C9 2.66 9 3.32 9 4 C8.34 4 7.68 4 7 4 C7 5.98 7 7.96 7 10 C0.84765625 10.09765625 0.84765625 10.09765625 -1 10 C-2 9 -2 9 -2.1875 6.125 C-2 3 -2 3 0 0 Z " fill="#C0BC64" transform="translate(76,40)"/>
<path d="M0 0 C1.125 3.75 1.125 3.75 0 6 C-0.0716735 8.55157655 -0.09308442 11.07472971 -0.0625 13.625 C-0.05798828 14.33140625 -0.05347656 15.0378125 -0.04882812 15.765625 C-0.03703875 17.51045275 -0.01910324 19.255237 0 21 C-0.66 21 -1.32 21 -2 21 C-2.33 15.72 -2.66 10.44 -3 5 C-3.99 6.485 -3.99 6.485 -5 8 C-5.66 8 -6.32 8 -7 8 C-6.67 9.65 -6.34 11.3 -6 13 C-8.79872437 10.47211993 -10.45773019 8.79588866 -11 5 C-9.68 4.67 -8.36 4.34 -7 4 C-7 3.01 -7 2.02 -7 1 C-3.535 0.505 -3.535 0.505 0 0 Z " fill="#BBAC25" transform="translate(67,8)"/>
<path d="M0 0 C0 1.65 0 3.3 0 5 C-1.32 5 -2.64 5 -4 5 C-3.67 6.32 -3.34 7.64 -3 9 C-2.34 9 -1.68 9 -1 9 C-1 10.98 -1 12.96 -1 15 C-2.32 15 -3.64 15 -5 15 C-4.67 14.01 -4.34 13.02 -4 12 C-3.34 12.33 -2.68 12.66 -2 13 C-2.66 12.01 -3.32 11.02 -4 10 C-4.61875 10.309375 -5.2375 10.61875 -5.875 10.9375 C-7.25 11.625 -8.625 12.3125 -10 13 C-9.67 10.03 -9.34 7.06 -9 4 C-7.35 3.67 -5.7 3.34 -4 3 C-4 2.34 -4 1.68 -4 1 C-2 0 -2 0 0 0 Z " fill="#F0E54E" transform="translate(139,16)"/>
<path d="M0 0 C0.125 4.75 0.125 4.75 -1 7 C-1.07194869 9.88370333 -1.09291708 12.74239664 -1.0625 15.625 C-1.05798828 16.42679688 -1.05347656 17.22859375 -1.04882812 18.0546875 C-1.03703168 20.03649006 -1.01909605 22.01825433 -1 24 C-1.66 23.67 -2.32 23.34 -3 23 C-3.33 17.06 -3.66 11.12 -4 5 C-6.64 5 -9.28 5 -12 5 C-12 4.01 -12 3.02 -12 2 C-8.09971775 -0.60018816 -4.52565431 -0.15085514 0 0 Z " fill="#A49524" transform="translate(104,7)"/>
<path d="M0 0 C5.28 0 10.56 0 16 0 C16 0.66 16 1.32 16 2 C14.02 2.33 12.04 2.66 10 3 C9.67 3.99 9.34 4.98 9 6 C6.4375 7.1875 6.4375 7.1875 4 8 C3.67 6.68 3.34 5.36 3 4 C1.68 3.67 0.36 3.34 -1 3 C-0.67 2.01 -0.34 1.02 0 0 Z " fill="#EEE416" transform="translate(51,7)"/>
<path d="M0 0 C2.33333333 0 4.66666667 0 7 0 C7 2.64 7 5.28 7 8 C6.01 7.67 5.02 7.34 4 7 C3.01 7.495 3.01 7.495 2 8 C0.45976004 8.06950541 -1.08334988 8.08452357 -2.625 8.0625 C-3.85089844 8.04896484 -3.85089844 8.04896484 -5.1015625 8.03515625 C-6.04128906 8.01775391 -6.04128906 8.01775391 -7 8 C-6 6 -6 6 -3 5 C-2.2884375 3.7315625 -2.2884375 3.7315625 -1.5625 2.4375 C-1.046875 1.633125 -0.53125 0.82875 0 0 Z " fill="#B7A242" transform="translate(103,42)"/>
<path d="M0 0 C2.02408755 0.09002398 4.04544287 0.24641038 6.0625 0.4375 C7.71958984 0.59025391 7.71958984 0.59025391 9.41015625 0.74609375 C10.26480469 0.82988281 11.11945312 0.91367187 12 1 C12 1.33 12 1.66 12 2 C9.69 2.66 7.38 3.32 5 4 C5.061875 4.78375 5.12375 5.5675 5.1875 6.375 C5.125625 7.24125 5.06375 8.1075 5 9 C4.01 9.66 3.02 10.32 2 11 C2.66 11.66 3.32 12.32 4 13 C2.35 12.67 0.7 12.34 -1 12 C-1.02687279 10.18757948 -1.04633715 8.37504767 -1.0625 6.5625 C-1.07410156 5.55316406 -1.08570313 4.54382812 -1.09765625 3.50390625 C-1 1 -1 1 0 0 Z " fill="#D6AA1A" transform="translate(48,38)"/>
<path d="M0 0 C0.66 0.33 1.32 0.66 2 1 C2.0809723 3.43816585 2.14046972 5.87364384 2.1875 8.3125 C2.22520508 9.34793945 2.22520508 9.34793945 2.26367188 10.40429688 C2.33754751 15.50171558 2.33754751 15.50171558 0.6875 17.9375 C-1.75804956 19.47729047 -4.16245195 19.68471688 -7 20 C-5.69254251 18.31295807 -4.35827971 16.64639965 -3 15 C-2.67 15 -2.34 15 -2 15 C-1.93941406 14.08476562 -1.87882812 13.16953125 -1.81640625 12.2265625 C-1.69072266 10.44378906 -1.69072266 10.44378906 -1.5625 8.625 C-1.48128906 7.44164062 -1.40007812 6.25828125 -1.31640625 5.0390625 C-1 2 -1 2 0 0 Z " fill="#DDD961" transform="translate(78,13)"/>
<path d="M0 0 C0.33 1.98 0.66 3.96 1 6 C-1.31 6 -3.62 6 -6 6 C-6 5.34 -6 4.68 -6 4 C-6.66 4 -7.32 4 -8 4 C-8.33 5.65 -8.66 7.3 -9 9 C-9.66 8.67 -10.32 8.34 -11 8 C-10.67 5.69 -10.34 3.38 -10 1 C-6.52674819 -0.1577506 -3.63932552 -0.06866652 0 0 Z " fill="#D9CC42" transform="translate(98,12)"/>
<path d="M0 0 C0.66 0 1.32 0 2 0 C2 0.66 2 1.32 2 2 C2.66 2.33 3.32 2.66 4 3 C5.09658936 6.28976808 4.79953138 7.71303767 4 11 C4.66 11 5.32 11 6 11 C5.67 11.99 5.34 12.98 5 14 C1.22699642 12.9802693 0.19793856 12.34127338 -1.8125 8.875 C-2.4003125 7.451875 -2.4003125 7.451875 -3 6 C-2.34 5.34 -1.68 4.68 -1 4 C-0.3574765 1.93125966 -0.3574765 1.93125966 0 0 Z " fill="#F2EA5E" transform="translate(90,16)"/>
<path d="M0 0 C-0.75 2.4375 -0.75 2.4375 -2 5 C-4.0625 5.875 -4.0625 5.875 -6 6 C-6.33 5.67 -6.66 5.34 -7 5 C-8.3921875 5.5259375 -8.3921875 5.5259375 -9.8125 6.0625 C-13 7 -13 7 -16 6 C-14.52100548 3.04201097 -12.76101146 1.82109266 -10 0 C-6.58268567 -0.86414845 -3.26036301 -1.63018151 0 0 Z " fill="#B1810E" transform="translate(33,7)"/>
<path d="M0 0 C0.33 0 0.66 0 1 0 C1 2.31 1 4.62 1 7 C2.32 7.33 3.64 7.66 5 8 C-4.57 8 -14.14 8 -24 8 C-23.34 6.68 -22.68 5.36 -22 4 C-21.67 4.99 -21.34 5.98 -21 7 C-14.89051241 6.95834684 -14.89051241 6.95834684 -9.9375 3.9375 C-9.628125 3.298125 -9.31875 2.65875 -9 2 C-9 3.32 -9 4.64 -9 6 C-6.36 5.67 -3.72 5.34 -1 5 C-0.67 3.35 -0.34 1.7 0 0 Z " fill="#FAE356" transform="translate(117,43)"/>
<path d="M0 0 C3.125 -0.1875 3.125 -0.1875 6 0 C6.66 1.32 7.32 2.64 8 4 C7.01 5.485 7.01 5.485 6 7 C5.85754103 9.76655324 5.81230555 12.42653306 5.875 15.1875 C5.88853516 16.31188477 5.88853516 16.31188477 5.90234375 17.45898438 C5.92587422 19.30612654 5.96174439 21.15310412 6 23 C5.34 23 4.68 23 4 23 C3.98582031 21.89140625 3.97164062 20.7828125 3.95703125 19.640625 C3.91012154 18.17704216 3.86187419 16.71350177 3.8125 15.25 C3.80669922 14.52039062 3.80089844 13.79078125 3.79492188 13.0390625 C3.63063149 9.02307529 3.35876499 7.3538203 0.44921875 4.484375 C-0.35902344 3.99453125 -1.16726562 3.5046875 -2 3 C-1.34 2.01 -0.68 1.02 0 0 Z " fill="#80530C" transform="translate(179,7)"/>
<path d="M0 0 C3.96 0 7.92 0 12 0 C12 0.33 12 0.66 12 1 C10.35 1 8.7 1 7 1 C7.20625 1.928125 7.4125 2.85625 7.625 3.8125 C8 7 8 7 6 10 C6 9.34 6 8.68 6 8 C5.34 8 4.68 8 4 8 C3.67 8.99 3.34 9.98 3 11 C3 8.36 3 5.72 3 3 C3.99 3 4.98 3 6 3 C6 2.34 6 1.68 6 1 C4.68 1 3.36 1 2 1 C1.67 3.97 1.34 6.94 1 10 C-0.32 10.33 -1.64 10.66 -3 11 C-2.34 10.34 -1.68 9.68 -1 9 C-0.53993654 6.79749008 -0.53993654 6.79749008 -0.375 4.375 C-0.25125 2.93125 -0.1275 1.4875 0 0 Z " fill="#A9A75D" transform="translate(135,39)"/>
<path d="M0 0 C0.33 0 0.66 0 1 0 C1.144375 0.9075 1.28875 1.815 1.4375 2.75 C3.74148052 7.54227948 7.19439556 8.2389886 12 10 C13.35766068 10.57515443 14.71229185 11.15756173 16.0625 11.75 C17.5165625 12.36875 17.5165625 12.36875 19 13 C18.67 13.66 18.34 14.32 18 15 C15.69 14.67 13.38 14.34 11 14 C11 13.34 11 12.68 11 12 C10.01 12 9.02 12 8 12 C7.67 12.66 7.34 13.32 7 14 C0.13785558 7.10284464 0.13785558 7.10284464 -0.4375 2.5 C-0.293125 1.675 -0.14875 0.85 0 0 Z " fill="#0B0901" transform="translate(17,14)"/>
<path d="M0 0 C0.66 0 1.32 0 2 0 C2 1.32 2 2.64 2 4 C2.66 4 3.32 4 4 4 C4 3.01 4 2.02 4 1 C4.66 1 5.32 1 6 1 C6 3.31 6 5.62 6 8 C3.03 8 0.06 8 -3 8 C-3.33 7.34 -3.66 6.68 -4 6 C-2.7260411 3.96166576 -1.38938077 1.96147874 0 0 Z " fill="#F5D048" transform="translate(150,43)"/>
<path d="M0 0 C0.33 0 0.66 0 1 0 C1.144375 1.051875 1.28875 2.10375 1.4375 3.1875 C1.87526966 6.15460549 2.37804866 9.06794366 3 12 C2.34 12 1.68 12 1 12 C0.9175 13.11375 0.835 14.2275 0.75 15.375 C0 19 0 19 -2.0625 20.4375 C-2.701875 20.623125 -3.34125 20.80875 -4 21 C-4 20.34 -4 19.68 -4 19 C-3.34 18.67 -2.68 18.34 -2 18 C-1.34227572 14.97065509 -1.34227572 14.97065509 -1 12 C-2.32 12 -3.64 12 -5 12 C-5.33 10.35 -5.66 8.7 -6 7 C-3.03 7.495 -3.03 7.495 0 8 C0 5.36 0 2.72 0 0 Z " fill="#A19627" transform="translate(171,11)"/>
<path d="M0 0 C1.32 0 2.64 0 4 0 C3.67 1.65 3.34 3.3 3 5 C3.66 5 4.32 5 5 5 C5.33 3.68 5.66 2.36 6 1 C6.99 1.99 7.98 2.98 9 4 C8.1875 5.9375 8.1875 5.9375 7 8 C3.37673261 9.2077558 2.35853631 8.54311128 -1 7 C-1.04254356 5.00045254 -1.04080783 2.99958364 -1 1 C-0.67 0.67 -0.34 0.34 0 0 Z " fill="#858246" transform="translate(87,42)"/>
<path d="M0 0 C0 0.33 0 0.66 0 1 C-1.051875 1.0825 -2.10375 1.165 -3.1875 1.25 C-7.30271705 2.0595509 -9.02972998 3.11709086 -12 6 C-12.33 6.66 -12.66 7.32 -13 8 C-13.66 8 -14.32 8 -15 8 C-15 6.68 -15 5.36 -15 4 C-15.99 3.67 -16.98 3.34 -18 3 C-13.56679381 -1.43320619 -5.89626565 -0.10487429 0 0 Z " fill="#F1C935" transform="translate(70,39)"/>
<path d="M0 0 C3.4375 0.8125 3.4375 0.8125 7 2 C7.97608217 4.92824652 8.08226668 6.95613276 8 10 C7.01 10 6.02 10 5 10 C5 9.34 5 8.68 5 8 C4.34 8 3.68 8 3 8 C2.67 8.99 2.34 9.98 2 11 C2.04125 10.113125 2.0825 9.22625 2.125 8.3125 C2.00102754 5.02722987 1.38612096 2.94550705 0 0 Z " fill="#EAD834" transform="translate(38,17)"/>
<path d="M0 0 C0.886875 0.4125 1.77375 0.825 2.6875 1.25 C1.759375 1.86875 1.759375 1.86875 0.8125 2.5 C-1.38018281 4.30573879 -2.24038417 5.6590534 -3.3125 8.25 C-5.7875 7.26 -5.7875 7.26 -8.3125 6.25 C-8.3125 3.25 -8.3125 3.25 -6.1875 0.9375 C-3.3125 -0.75 -3.3125 -0.75 0 0 Z " fill="#E2C627" transform="translate(28.3125,14.75)"/>
<path d="M0 0 C0.97744926 3.04095325 1.16271218 4.99632687 0 8 C-1.375 9.75 -1.375 9.75 -3 11 C-3.99 11 -4.98 11 -6 11 C-5.54177532 7.53058454 -5.10868317 4.32604951 -4 1 C-2 0 -2 0 0 0 Z " fill="#F2ED63" transform="translate(112,22)"/>
<path d="M0 0 C1.98 0 3.96 0 6 0 C6 2.31 6 4.62 6 7 C3.66666667 7 1.33333333 7 -1 7 C-0.67 4.69 -0.34 2.38 0 0 Z " fill="#928B46" transform="translate(126,42)"/>
<path d="M0 0 C0.33 0.66 0.66 1.32 1 2 C3.52733235 2.65555119 3.52733235 2.65555119 6 3 C5.6875 4.875 5.6875 4.875 5 7 C4.01 7.66 3.02 8.32 2 9 C2 8.34 2 7.68 2 7 C0.35 6.67 -1.3 6.34 -3 6 C-3 4.35 -3 2.7 -3 1 C-2.01 0.67 -1.02 0.34 0 0 Z " fill="#DDB01B" transform="translate(175,9)"/>
<path d="M0 0 C-1.11799986 1.33920838 -2.24461897 2.67122556 -3.375 4 C-4.00148437 4.7425 -4.62796875 5.485 -5.2734375 6.25 C-6.12808594 7.11625 -6.12808594 7.11625 -7 8 C-7.66 8 -8.32 8 -9 8 C-9 5.36 -9 2.72 -9 0 C-5.5657338 -0.85856655 -3.38317487 -0.97591583 0 0 Z " fill="#F7E975" transform="translate(151,40)"/>
<path d="M0 0 C-1 2 -1 2 -2 3 C-1.01 3 -0.02 3 1 3 C0.67 4.32 0.34 5.64 0 7 C-0.33 6.01 -0.66 5.02 -1 4 C-1.62648437 4.01160156 -2.25296875 4.02320313 -2.8984375 4.03515625 C-3.71570313 4.04417969 -4.53296875 4.05320312 -5.375 4.0625 C-6.18710938 4.07410156 -6.99921875 4.08570313 -7.8359375 4.09765625 C-10 4 -10 4 -12 3 C-12 2.34 -12 1.68 -12 1 C-8.0186217 -0.3271261 -4.14954773 -0.06915913 0 0 Z " fill="#C1AD26" transform="translate(160,9)"/>
<path d="M0 0 C0.33 0 0.66 0 1 0 C1.103125 1.11375 1.20625 2.2275 1.3125 3.375 C1.6528125 5.169375 1.6528125 5.169375 2 7 C2.99 7.66 3.98 8.32 5 9 C5 9.66 5 10.32 5 11 C2.69 11 0.38 11 -2 11 C-2.33 8.36 -2.66 5.72 -3 3 C-2.34 3 -1.68 3 -1 3 C-0.67 2.01 -0.34 1.02 0 0 Z " fill="#F7F573" transform="translate(64,22)"/>
<path d="M0 0 C0.66 0 1.32 0 2 0 C3.125 6.625 3.125 6.625 2 10 C0.35 9.67 -1.3 9.34 -3 9 C-3 4.73220763 -2.46816349 3.70224524 0 0 Z " fill="#F5F376" transform="translate(97,22)"/>
<path d="M0 0 C4.29 0 8.58 0 13 0 C13 0.66 13 1.32 13 2 C11.02 2.33 9.04 2.66 7 3 C7.66 4.65 8.32 6.3 9 8 C8.34 8 7.68 8 7 8 C7 7.34 7 6.68 7 6 C5.35 5.67 3.7 5.34 2 5 C2.99 4.01 3.98 3.02 5 2 C3.35 1.67 1.7 1.34 0 1 C0 0.67 0 0.34 0 0 Z " fill="#ECA01C" transform="translate(129,7)"/>
<path d="M0 0 C2.1875 -0.3125 2.1875 -0.3125 5 0 C7.8125 2.375 7.8125 2.375 10 5 C10 5.66 10 6.32 10 7 C11.32 7 12.64 7 14 7 C14 7.66 14 8.32 14 9 C11 10 11 10 8 9 C7.87625 8.071875 7.87625 8.071875 7.75 7.125 C7.11693478 4.54178709 7.11693478 4.54178709 3.4375 3.25 C2.303125 2.8375 1.16875 2.425 0 2 C0 1.34 0 0.68 0 0 Z " fill="#070601" transform="translate(106,10)"/>
<path d="M0 0 C1.28132812 0.00902344 2.56265625 0.01804687 3.8828125 0.02734375 C4.87023437 0.03894531 5.85765625 0.05054688 6.875 0.0625 C6.875 0.7225 6.875 1.3825 6.875 2.0625 C2.915 2.0625 -1.045 2.0625 -5.125 2.0625 C-5.455 2.7225 -5.785 3.3825 -6.125 4.0625 C-7.115 3.7325 -8.105 3.4025 -9.125 3.0625 C-9.125 2.4025 -9.125 1.7425 -9.125 1.0625 C-6.12186252 -0.43906874 -3.33432478 -0.03031204 0 0 Z " fill="#F7E31A" transform="translate(157.125,6.9375)"/>
<path d="M0 0 C3 1 3 1 4 3 C4.66 2.01 5.32 1.02 6 0 C6 2.31 6 4.62 6 7 C4.02 7 2.04 7 0 7 C0 4.69 0 2.38 0 0 Z " fill="#756B2E" transform="translate(118,43)"/>
<path d="M0 0 C0.33 0 0.66 0 1 0 C1.05406122 1.93719378 1.09282025 3.87481921 1.125 5.8125 C1.14820313 6.89144531 1.17140625 7.97039063 1.1953125 9.08203125 C1 12 1 12 -1 15 C-1.66 14.34 -2.32 13.68 -3 13 C-3 12.01 -3 11.02 -3 10 C-2.34 10 -1.68 10 -1 10 C-1 9.01 -1 8.02 -1 7 C-1.66 7 -2.32 7 -3 7 C-2.67 5.68 -2.34 4.36 -2 3 C-1.67 3.33 -1.34 3.66 -1 4 C-0.67 2.68 -0.34 1.36 0 0 Z " fill="#E8C122" transform="translate(182,10)"/>
<path d="M0 0 C2.64 0 5.28 0 8 0 C8 1.32 8 2.64 8 4 C6.35 4.66 4.7 5.32 3 6 C2.67 4.68 2.34 3.36 2 2 C1.34 2 0.68 2 0 2 C0 1.34 0 0.68 0 0 Z " fill="#E5C922" transform="translate(52,9)"/>
<path d="M0 0 C0.33 0 0.66 0 1 0 C1.33 1.65 1.66 3.3 2 5 C2.66 5 3.32 5 4 5 C4.33 6.32 4.66 7.64 5 9 C1.37 9 -2.26 9 -6 9 C-5.34 8.67 -4.68 8.34 -4 8 C-3.67 7.01 -3.34 6.02 -3 5 C-2.67 5.99 -2.34 6.98 -2 8 C-0.80900253 5.99068305 -0.80900253 5.99068305 -1 3.4375 C-1 1 -1 1 0 0 Z " fill="#FBF36F" transform="translate(67,42)"/>
<path d="M0 0 C2.33333333 0 4.66666667 0 7 0 C7 2.64 7 5.28 7 8 C6.01 7.67 5.02 7.34 4 7 C3.34 7 2.68 7 2 7 C2 5.68 2 4.36 2 3 C1.01 2.34 0.02 1.68 -1 1 C-0.67 0.67 -0.34 0.34 0 0 Z " fill="#887328" transform="translate(103,42)"/>
<path d="M0 0 C1.485 0.99 1.485 0.99 3 2 C5.11280345 2.63292383 5.11280345 2.63292383 7 3 C6.67 4.65 6.34 6.3 6 8 C4.68 8 3.36 8 2 8 C2 7.01 2 6.02 2 5 C1.34 5 0.68 5 0 5 C0 3.35 0 1.7 0 0 Z " fill="#E8D439" transform="translate(173,24)"/>
<path d="M0 0 C0.99 0.33 1.98 0.66 3 1 C3 1.66 3 2.32 3 3 C2.01 3 1.02 3 0 3 C-0.33 5.31 -0.66 7.62 -1 10 C-1.66 10 -2.32 10 -3 10 C-3 8.35 -3 6.7 -3 5 C-3.99 5 -4.98 5 -6 5 C-5.67 4.34 -5.34 3.68 -5 3 C-2.4375 2.375 -2.4375 2.375 0 2 C0 1.34 0 0.68 0 0 Z " fill="#DFC020" transform="translate(164,7)"/>
<path d="M0 0 C2.78211944 0.37596209 4.5879284 0.67318459 6.8125 2.4375 C8 4 8 4 8 6 C9.32 6 10.64 6 12 6 C11.67 6.99 11.34 7.98 11 9 C6.125 7.25 6.125 7.25 5 5 C4.34 4.690625 3.68 4.38125 3 4.0625 C1 3 1 3 0 0 Z " fill="#060501" transform="translate(33,10)"/>
<path d="M0 0 C3.63 0.33 7.26 0.66 11 1 C9.02 1.99 9.02 1.99 7 3 C6.67 3.33 6.34 3.66 6 4 C6.66 4.33 7.32 4.66 8 5 C7.67 5.66 7.34 6.32 7 7 C4 6 4 6 2 4 C1.01 3.67 0.02 3.34 -1 3 C-0.67 2.01 -0.34 1.02 0 0 Z " fill="#F7DF31" transform="translate(126,7)"/>
<path d="M0 0 C0.93423645 3.01031744 1.04449911 3.86650268 0 7 C-2.375 8.3125 -2.375 8.3125 -5 9 C-5.99 8.34 -6.98 7.68 -8 7 C-7.50628906 6.66226563 -7.01257813 6.32453125 -6.50390625 5.9765625 C-5.86324219 5.53054687 -5.22257812 5.08453125 -4.5625 4.625 C-3.92441406 4.18414063 -3.28632812 3.74328125 -2.62890625 3.2890625 C-0.86259072 2.07839147 -0.86259072 2.07839147 0 0 Z " fill="#0B0B05" transform="translate(80,27)"/>
<path d="M0 0 C0.66 0 1.32 0 2 0 C5 4.38461538 5 4.38461538 5 7 C4.01 7 3.02 7 2 7 C2.33 7.66 2.66 8.32 3 9 C-1.75 7.125 -1.75 7.125 -4 6 C-4 5.34 -4 4.68 -4 4 C-2.68 4.33 -1.36 4.66 0 5 C0.33 4.34 0.66 3.68 1 3 C0.67 2.01 0.34 1.02 0 0 Z " fill="#F0E341" transform="translate(36,17)"/>
<path d="M0 0 C1.98 0 3.96 0 6 0 C5.67 0.99 5.34 1.98 5 3 C5.99 3.33 6.98 3.66 8 4 C7.34 4 6.68 4 6 4 C6 4.66 6 5.32 6 6 C4.68 6 3.36 6 2 6 C0 3 0 3 0 0 Z " fill="#E6CA2D" transform="translate(172,15)"/>
<path d="M0 0 C0.625 1.875 0.625 1.875 1 4 C0.34 4.66 -0.32 5.32 -1 6 C-1.14517744 8.9093558 -1.18630796 11.719946 -1.125 14.625 C-1.11597656 15.42679688 -1.10695312 16.22859375 -1.09765625 17.0546875 C-1.07406223 19.03658523 -1.03819065 21.01832981 -1 23 C-1.66 23 -2.32 23 -3 23 C-3 16.4 -3 9.8 -3 3 C-2.01 3 -1.02 3 0 3 C0 2.01 0 1.02 0 0 Z " fill="#464212" transform="translate(143,7)"/>
<path d="M0 0 C1.32 0 2.64 0 4 0 C4 1.65 4 3.3 4 5 C3.01 5 2.02 5 1 5 C1 5.66 1 6.32 1 7 C1.99 7.33 2.98 7.66 4 8 C2.35 7.67 0.7 7.34 -1 7 C-1.04254356 5.00045254 -1.04080783 2.99958364 -1 1 C-0.67 0.67 -0.34 0.34 0 0 Z " fill="#79733B" transform="translate(75,42)"/>
<path d="M0 0 C0.66666667 2 1.33333333 4 2 6 C1.01 6.66 0.02 7.32 -1 8 C-1 7.34 -1 6.68 -1 6 C-1.99 6 -2.98 6 -4 6 C-3.67 4.35 -3.34 2.7 -3 1 C-2.01 0.67 -1.02 0.34 0 0 Z " fill="#DECB30" transform="translate(36,15)"/>
<path d="M0 0 C2.475 0.495 2.475 0.495 5 1 C4.67 2.98 4.34 4.96 4 7 C3.67 6.34 3.34 5.68 3 5 C2.34 5 1.68 5 1 5 C0.67 5.99 0.34 6.98 0 8 C0 5.36 0 2.72 0 0 Z " fill="#6C6A3D" transform="translate(138,42)"/>
<path d="M0 0 C1.65 0.33 3.3 0.66 5 1 C5 2.32 5 3.64 5 5 C4.34 5 3.68 5 3 5 C3 5.99 3 6.98 3 8 C2.34 8 1.68 8 1 8 C1 6.68 1 5.36 1 4 C0.34 3.67 -0.32 3.34 -1 3 C-0.34 2.67 0.32 2.34 1 2 C0.67 1.34 0.34 0.68 0 0 Z " fill="#F1D94F" transform="translate(151,39)"/>
<path d="M0 0 C0.99 0 1.98 0 3 0 C3 2.64 3 5.28 3 8 C2.01 8.33 1.02 8.66 0 9 C-0.87890625 2.84765625 -0.87890625 2.84765625 -1 1 C-0.67 0.67 -0.34 0.34 0 0 Z " fill="#F8F389" transform="translate(132,40)"/>
<path d="M0 0 C0.33 0.99 0.66 1.98 1 3 C1.99 3.33 2.98 3.66 4 4 C4 9.28 4 14.56 4 20 C3.67 20 3.34 20 3 20 C2.67 15.38 2.34 10.76 2 6 C1.34 6 0.68 6 0 6 C0 4.02 0 2.04 0 0 Z " fill="#696213" transform="translate(49,7)"/>
<path d="M0 0 C5.57142857 5.14285714 5.57142857 5.14285714 6 9 C4 9 2 9 0 9 C0 6.03 0 3.06 0 0 Z " fill="#F3E33B" transform="translate(53,11)"/>
<path d="M0 0 C0.66 0 1.32 0 2 0 C2 1.32 2 2.64 2 4 C2.66 4 3.32 4 4 4 C4.33 3.01 4.66 2.02 5 1 C5 2.98 5 4.96 5 7 C3.02 7 1.04 7 -1 7 C-0.67 4.69 -0.34 2.38 0 0 Z " fill="#DDB52D" transform="translate(150,43)"/>
<path d="M0 0 C1.65 0 3.3 0 5 0 C5 0.99 5 1.98 5 3 C4.01 3.495 4.01 3.495 3 4 C3 3.34 3 2.68 3 2 C2.34 2 1.68 2 1 2 C1 3.65 1 5.3 1 7 C0.34 7 -0.32 7 -1 7 C-1 6.34 -1 5.68 -1 5 C-1.99 4.67 -2.98 4.34 -4 4 C-2.68 4 -1.36 4 0 4 C0 2.68 0 1.36 0 0 Z " fill="#F7F184" transform="translate(91,40)"/>
<path d="M0 0 C2 2 2 2 2.125 4.625 C2.08375 5.40875 2.0425 6.1925 2 7 C-0.64 7 -3.28 7 -6 7 C-5.67 6.34 -5.34 5.68 -5 5 C-4.34 5 -3.68 5 -3 5 C-1.3553326 2.53673288 -1.3553326 2.53673288 0 0 Z " fill="#F0EB5D" transform="translate(154,25)"/>
<path d="M0 0 C-0.75 2.4375 -0.75 2.4375 -2 5 C-4.125 5.8125 -4.125 5.8125 -6 6 C-5.67 4.68 -5.34 3.36 -5 2 C-5.66 2 -6.32 2 -7 2 C-7 1.34 -7 0.68 -7 0 C-2.25 -1.125 -2.25 -1.125 0 0 Z " fill="#6A4F09" transform="translate(33,7)"/>
<path d="M0 0 C0.99 0 1.98 0 3 0 C2.67 0.99 2.34 1.98 2 3 C-3.94 3 -9.88 3 -16 3 C-16 2.67 -16 2.34 -16 2 C-10.72 2 -5.44 2 0 2 C0 1.34 0 0.68 0 0 Z " fill="#A79528" transform="translate(184,30)"/>
<path d="M0 0 C0.99 0 1.98 0 3 0 C3 0.66 3 1.32 3 2 C2.01 2.66 1.02 3.32 0 4 C-0.58592634 7.11610554 -0.58592634 7.11610554 -0.6875 10.625 C-0.75324219 11.81351563 -0.81898437 13.00203125 -0.88671875 14.2265625 C-0.92410156 15.14179688 -0.96148437 16.05703125 -1 17 C-1.33 17 -1.66 17 -2 17 C-2.05398987 14.72942623 -2.09278742 12.45848712 -2.125 10.1875 C-2.14820312 8.92292969 -2.17140625 7.65835937 -2.1953125 6.35546875 C-2 3 -2 3 0 0 Z " fill="#7B762C" transform="translate(82,10)"/>
<path d="M0 0 C0.99 0.33 1.98 0.66 3 1 C3.625 4.375 3.625 4.375 4 8 C3.34 8.66 2.68 9.32 2 10 C1.71125 9.38125 1.4225 8.7625 1.125 8.125 C0.06279958 5.86674235 0.06279958 5.86674235 -2 4 C-1.34 3.67 -0.68 3.34 0 3 C0 2.01 0 1.02 0 0 Z " fill="#F1E345" transform="translate(156,12)"/>
<path d="M0 0 C0.99 0.33 1.98 0.66 3 1 C3.33 2.98 3.66 4.96 4 7 C3.67 6.34 3.34 5.68 3 5 C1.35 5.66 -0.3 6.32 -2 7 C-1.34 4.69 -0.68 2.38 0 0 Z " fill="#5E4F1B" transform="translate(113,43)"/>
<path d="M0 0 C1.32 0 2.64 0 4 0 C3.67 2.64 3.34 5.28 3 8 C0.9375 5.6875 0.9375 5.6875 -1 3 C-0.67 2.01 -0.34 1.02 0 0 Z " fill="#E8D630" transform="translate(114,9)"/>
<path d="M0 0 C2 2 2 2 2.125 5.125 C2.08375 6.07375 2.0425 7.0225 2 8 C1.01 8 0.02 8 -1 8 C-1.93065133 5.39417629 -2.14917407 4.35801776 -1.0625 1.75 C-0.711875 1.1725 -0.36125 0.595 0 0 Z " fill="#CEC73E" transform="translate(44,19)"/>
<path d="M0 0 C0.66 0 1.32 0 2 0 C2 2.97 2 5.94 2 9 C1.01 9 0.02 9 -1 9 C-0.67 6.03 -0.34 3.06 0 0 Z " fill="#C8BC2F" transform="translate(118,8)"/>
<path d="M0 0 C2.64 0 5.28 0 8 0 C8 0.66 8 1.32 8 2 C7.01 2 6.02 2 5 2 C5 2.66 5 3.32 5 4 C3.35 3.67 1.7 3.34 0 3 C0 2.01 0 1.02 0 0 Z " fill="#AA8610" transform="translate(33,7)"/>
<path d="M0 0 C1.9375 0.8125 1.9375 0.8125 4 2 C4.33 2.99 4.66 3.98 5 5 C2.69 4.67 0.38 4.34 -2 4 C-1.34 3.67 -0.68 3.34 0 3 C0 2.01 0 1.02 0 0 Z " fill="#BCB838" transform="translate(25,28)"/>
<path d="M0 0 C2.97 0 5.94 0 9 0 C9 0.66 9 1.32 9 2 C7.35 2 5.7 2 4 2 C3.67 2.66 3.34 3.32 3 4 C2.67 3.01 2.34 2.02 2 1 C1.34 0.67 0.68 0.34 0 0 Z " fill="#F5D351" transform="translate(103,40)"/>
<path d="M0 0 C3.3 0 6.6 0 10 0 C5.5 3.375 5.5 3.375 1 3 C0.67 2.01 0.34 1.02 0 0 Z " fill="#F2E66F" transform="translate(125,39)"/>
<path d="M0 0 C0.66 0 1.32 0 2 0 C2 1.98 2 3.96 2 6 C0.35 6.33 -1.3 6.66 -3 7 C-2.67 6.01 -2.34 5.02 -2 4 C-1.34 4 -0.68 4 0 4 C0 2.68 0 1.36 0 0 Z " fill="#F3F171" transform="translate(112,26)"/>
<path d="M0 0 C2 3 2 3 1.625 5.6875 C1.41875 6.450625 1.2125 7.21375 1 8 C0.01 8 -0.98 8 -2 8 C-1.125 1.125 -1.125 1.125 0 0 Z " fill="#C8C75E" transform="translate(108,25)"/>
<path d="M0 0 C2 3 2 3 2 5 C2.66 5.33 3.32 5.66 4 6 C2.02 6.99 2.02 6.99 0 8 C-0.66 6.02 -1.32 4.04 -2 2 C-1.34 1.34 -0.68 0.68 0 0 Z " fill="#EDDE48" transform="translate(175,20)"/>
<path d="M0 0 C2.31 0 4.62 0 7 0 C6.67 1.65 6.34 3.3 6 5 C5.67 4.01 5.34 3.02 5 2 C3.35 2 1.7 2 0 2 C0 1.34 0 0.68 0 0 Z " fill="#B3AE3D" transform="translate(114,20)"/>
<path d="M0 0 C0 2.64 0 5.28 0 8 C-0.99 8.495 -0.99 8.495 -2 9 C-2.33 6.36 -2.66 3.72 -3 1 C-1 0 -1 0 0 0 Z " fill="#F4E746" transform="translate(101,11)"/>
<path d="M0 0 C0.66 0 1.32 0 2 0 C2 0.99 2 1.98 2 3 C2.66 3 3.32 3 4 3 C4 3.66 4 4.32 4 5 C2.02 5.33 0.04 5.66 -2 6 C-2 5.01 -2 4.02 -2 3 C-1.01 3 -0.02 3 1 3 C0.67 2.01 0.34 1.02 0 0 Z " fill="#0A0602" transform="translate(166,7)"/>
<path d="M0 0 C0.33 0.99 0.66 1.98 1 3 C1.66 3.33 2.32 3.66 3 4 C2.01 4.99 1.02 5.98 0 7 C-0.99 6.34 -1.98 5.68 -3 5 C-3 3 -3 3 -1.5 1.375 C-1.005 0.92125 -0.51 0.4675 0 0 Z " fill="#F3EC5C" transform="translate(160,25)"/>
<path d="M0 0 C1.98 0.66 3.96 1.32 6 2 C5.67 3.65 5.34 5.3 5 7 C2.65941363 4.87219421 1.29299694 2.88437779 0 0 Z " fill="#DAD76A" transform="translate(87,22)"/>
<path d="M0 0 C2.475 0.99 2.475 0.99 5 2 C5 2.99 5 3.98 5 5 C2.03 4.505 2.03 4.505 -1 4 C-0.67 2.68 -0.34 1.36 0 0 Z " fill="#DFD23A" transform="translate(27,20)"/>
<path d="M0 0 C0.66 0.99 1.32 1.98 2 3 C0.68 2.34 -0.64 1.68 -2 1 C-1.34 0.67 -0.68 0.34 0 0 Z M-4 2 C-2.02 2.66 -0.04 3.32 2 4 C1.67 4.66 1.34 5.32 1 6 C-1.475 5.01 -1.475 5.01 -4 4 C-4 3.34 -4 2.68 -4 2 Z " fill="#EAD027" transform="translate(23,16)"/>
<path d="M0 0 C1.65 1.65 3.3 3.3 5 5 C3.68 5 2.36 5 1 5 C0.67 5.66 0.34 6.32 0 7 C0 4.69 0 2.38 0 0 Z " fill="#AA9D19" transform="translate(17,21)"/>
<path d="M0 0 C1.32 1.32 2.64 2.64 4 4 C3.67 4.99 3.34 5.98 3 7 C1.68 6.34 0.36 5.68 -1 5 C-0.67 3.35 -0.34 1.7 0 0 Z " fill="#21210B" transform="translate(104,19)"/>
<path d="M0 0 C2.31 0.33 4.62 0.66 7 1 C6.34 2.32 5.68 3.64 5 5 C2.5 3.625 2.5 3.625 0 2 C0 1.34 0 0.68 0 0 Z " fill="#9F8915" transform="translate(27,13)"/>
<path d="M0 0 C1.98 0.495 1.98 0.495 4 1 C4.33 2.32 4.66 3.64 5 5 C3.02 4.34 1.04 3.68 -1 3 C-0.67 2.01 -0.34 1.02 0 0 Z " fill="#121004" transform="translate(73,10)"/>
<path d="M0 0 C2.64 0 5.28 0 8 0 C8.33 0.99 8.66 1.98 9 3 C4.545 2.01 4.545 2.01 0 1 C0 0.67 0 0.34 0 0 Z " fill="#F3E814" transform="translate(76,7)"/>
<path d="M0 0 C2 1 2 1 2 1 Z " fill="#000000" transform="translate(104,12)"/>
<path d="M0 0 C2 1 2 1 2 1 Z " fill="#000000" transform="translate(31,12)"/>
<path d="M0 0 C2 1 2 1 2 1 Z " fill="#000000" transform="translate(104,6)"/>
<path d="" fill="#000000" transform="translate(0,0)"/>
<path d="" fill="#000000" transform="translate(0,0)"/>
<path d="" fill="#000000" transform="translate(0,0)"/>
<path d="" fill="#000000" transform="translate(0,0)"/>
<path d="" fill="#000000" transform="translate(0,0)"/>
<path d="" fill="#000000" transform="translate(0,0)"/>
<path d="" fill="#000000" transform="translate(0,0)"/>
<path d="" fill="#000000" transform="translate(0,0)"/>
<path d="" fill="#000000" transform="translate(0,0)"/>
<path d="" fill="#000000" transform="translate(0,0)"/>
<path d="" fill="#000000" transform="translate(0,0)"/>
<path d="" fill="#000000" transform="translate(0,0)"/>
<path d="" fill="#000000" transform="translate(0,0)"/>
<path d="" fill="#000000" transform="translate(0,0)"/>
<path d="" fill="#000000" transform="translate(0,0)"/>
<path d="" fill="#000000" transform="translate(0,0)"/>
<path d="" fill="#000000" transform="translate(0,0)"/>
<path d="" fill="#000000" transform="translate(0,0)"/>
<path d="" fill="#000000" transform="translate(0,0)"/>
<path d="" fill="#000000" transform="translate(0,0)"/>
<path d="" fill="#000000" transform="translate(0,0)"/>
<path d="" fill="#000000" transform="translate(0,0)"/>
<path d="" fill="#000000" transform="translate(0,0)"/>
<path d="" fill="#000000" transform="translate(0,0)"/>
<path d="" fill="#000000" transform="translate(0,0)"/>
<path d="" fill="#000000" transform="translate(0,0)"/>
<path d="" fill="#000000" transform="translate(0,0)"/>
<path d="" fill="#000000" transform="translate(0,0)"/>
<path d="" fill="#000000" transform="translate(0,0)"/>
<path d="" fill="#000000" transform="translate(0,0)"/>
<path d="" fill="#000000" transform="translate(0,0)"/>
<path d="" fill="#000000" transform="translate(0,0)"/>
<path d="" fill="#000000" transform="translate(0,0)"/>
<path d="" fill="#000000" transform="translate(0,0)"/>
<path d="" fill="#000000" transform="translate(0,0)"/>
<path d="" fill="#000000" transform="translate(0,0)"/>
<path d="" fill="#000000" transform="translate(0,0)"/>
<path d="" fill="#000000" transform="translate(0,0)"/>
<path d="" fill="#000000" transform="translate(0,0)"/>
<path d="" fill="#000000" transform="translate(0,0)"/>
<path d="" fill="#000000" transform="translate(0,0)"/>
<path d="" fill="#000000" transform="translate(0,0)"/>
<path d="" fill="#000000" transform="translate(0,0)"/>
<path d="" fill="#000000" transform="translate(0,0)"/>
<path d="" fill="#000000" transform="translate(0,0)"/>
<path d="" fill="#000000" transform="translate(0,0)"/>
<path d="" fill="#000000" transform="translate(0,0)"/>
<path d="" fill="#000000" transform="translate(0,0)"/>
<path d="" fill="#000000" transform="translate(0,0)"/>
<path d="" fill="#000000" transform="translate(0,0)"/>
<path d="" fill="#000000" transform="translate(0,0)"/>
<path d="" fill="#000000" transform="translate(0,0)"/>
<path d="" fill="#000000" transform="translate(0,0)"/>
<path d="" fill="#000000" transform="translate(0,0)"/>
<path d="" fill="#000000" transform="translate(0,0)"/>
<path d="" fill="#000000" transform="translate(0,0)"/>
<path d="" fill="#000000" transform="translate(0,0)"/>
<path d="" fill="#000000" transform="translate(0,0)"/>
<path d="" fill="#000000" transform="translate(0,0)"/>
</svg>
